<svg xmlns="http://www.w3.org/2000/svg" xmlns:xlink="http://www.w3.org/1999/xlink" width="500" zoomAndPan="magnify" viewBox="0 0 375 374.999991" height="500" preserveAspectRatio="xMidYMid meet" version="1.0"><defs><clipPath id="57c73a9114"><path d="M 114.65625 164 L 260.15625 164 L 260.15625 226 L 114.65625 226 Z M 114.65625 164 " clip-rule="nonzero"/></clipPath><clipPath id="e5d47fffbb"><path d="M 206 272 L 244 272 L 244 291.347656 L 206 291.347656 Z M 206 272 " clip-rule="nonzero"/></clipPath><clipPath id="10062df0c5"><path d="M 131 272 L 169 272 L 169 291.347656 L 131 291.347656 Z M 131 272 " clip-rule="nonzero"/></clipPath><clipPath id="7798c3f8b6"><path d="M 161 141.347656 L 205 141.347656 L 205 168 L 161 168 Z M 161 141.347656 " clip-rule="nonzero"/></clipPath><clipPath id="a63177ae1b"><path d="M 174 87.726562 L 226 87.726562 L 226 140.976562 L 174 140.976562 Z M 174 87.726562 " clip-rule="nonzero"/></clipPath><clipPath id="af4b9bdcbc"><path d="M 166.195312 110 L 172 110 L 172 129 L 166.195312 129 Z M 166.195312 110 " clip-rule="nonzero"/></clipPath><clipPath id="a665d3fd2e"><path d="M 227 110 L 233.695312 110 L 233.695312 129 L 227 129 Z M 227 110 " clip-rule="nonzero"/></clipPath></defs><g clip-path="url(#57c73a9114)"><path fill="#8e4739" d="M 255.507812 225.789062 L 241.445312 225.789062 L 241.445312 220.96875 L 255.507812 220.96875 L 255.4375 169.472656 L 119.570312 169.539062 L 119.636719 221.035156 L 128.945312 220.96875 L 128.945312 225.789062 L 119.570312 225.789062 C 118.300781 225.789062 117.105469 225.292969 116.207031 224.394531 C 115.308594 223.496094 114.816406 222.304688 114.816406 221.035156 L 114.816406 169.472656 C 114.816406 168.199219 115.308594 167.007812 116.207031 166.109375 C 117.105469 165.210938 118.300781 164.71875 119.570312 164.71875 L 255.507812 164.71875 C 256.777344 164.71875 257.96875 165.210938 258.867188 166.109375 C 259.765625 167.003906 260.257812 168.199219 260.257812 169.472656 L 260.257812 221.035156 C 260.257812 222.304688 259.765625 223.5 258.863281 224.394531 C 257.96875 225.292969 256.773438 225.789062 255.507812 225.789062 Z M 255.507812 225.789062 " fill-opacity="1" fill-rule="nonzero"/></g><path fill="#8e4739" d="M 166.445312 220.96875 L 208.632812 220.96875 L 208.632812 225.789062 L 166.445312 225.789062 Z M 166.445312 220.96875 " fill-opacity="1" fill-rule="nonzero"/><path fill="#8e4739" d="M 211.042969 244.472656 L 206.21875 244.472656 L 206.21875 209.316406 C 206.21875 207.421875 206.957031 205.640625 208.296875 204.296875 C 209.644531 202.953125 211.425781 202.21875 213.320312 202.21875 C 215.210938 202.21875 216.992188 202.953125 218.335938 204.292969 C 219.679688 205.640625 220.417969 207.421875 220.417969 209.316406 L 220.417969 232.753906 L 215.59375 232.753906 L 215.59375 209.316406 C 215.59375 208.707031 215.355469 208.136719 214.925781 207.703125 C 214.070312 206.851562 212.570312 206.84375 211.703125 207.707031 C 211.277344 208.136719 211.039062 208.707031 211.039062 209.316406 L 211.039062 244.472656 Z M 211.042969 244.472656 " fill-opacity="1" fill-rule="nonzero"/><path fill="#8e4739" d="M 229.792969 232.753906 L 224.96875 232.753906 L 224.96875 224.449219 C 224.96875 223.839844 224.730469 223.269531 224.300781 222.835938 C 223.445312 221.984375 221.945312 221.980469 221.078125 222.839844 C 220.652344 223.269531 220.414062 223.84375 220.414062 224.449219 L 220.414062 232.753906 L 215.59375 232.753906 L 215.59375 224.449219 C 215.59375 222.558594 216.332031 220.777344 217.671875 219.433594 C 219.019531 218.089844 220.800781 217.351562 222.691406 217.351562 C 224.585938 217.351562 226.367188 218.089844 227.710938 219.429688 C 229.054688 220.777344 229.789062 222.558594 229.789062 224.449219 L 229.789062 232.753906 Z M 229.792969 232.753906 " fill-opacity="1" fill-rule="nonzero"/><path fill="#8e4739" d="M 239.167969 232.753906 L 234.34375 232.753906 L 234.34375 224.449219 C 234.34375 223.839844 234.105469 223.269531 233.675781 222.835938 C 232.820312 221.984375 231.320312 221.980469 230.453125 222.839844 C 230.027344 223.269531 229.789062 223.84375 229.789062 224.449219 L 229.789062 232.753906 L 224.96875 232.753906 L 224.96875 224.449219 C 224.96875 222.558594 225.707031 220.777344 227.046875 219.433594 C 228.394531 218.089844 230.175781 217.351562 232.066406 217.351562 C 233.960938 217.351562 235.742188 218.089844 237.085938 219.429688 C 238.429688 220.777344 239.164062 222.558594 239.164062 224.449219 L 239.164062 232.753906 Z M 239.167969 232.753906 " fill-opacity="1" fill-rule="nonzero"/><path fill="#8e4739" d="M 241.511719 274.941406 L 236.6875 274.941406 L 236.6875 267.472656 L 243.71875 248.722656 L 243.71875 228.066406 C 243.71875 227.457031 243.480469 226.886719 243.050781 226.453125 C 242.195312 225.597656 240.695312 225.59375 239.828125 226.457031 C 239.402344 226.886719 239.164062 227.457031 239.164062 228.066406 L 239.164062 232.753906 L 234.34375 232.753906 L 234.34375 228.066406 C 234.34375 226.171875 235.082031 224.390625 236.421875 223.050781 C 237.769531 221.707031 239.550781 220.96875 241.441406 220.96875 C 243.335938 220.96875 245.117188 221.707031 246.460938 223.046875 C 247.804688 224.390625 248.539062 226.175781 248.539062 228.066406 L 248.539062 249.597656 L 241.507812 268.347656 L 241.507812 274.941406 Z M 241.511719 274.941406 " fill-opacity="1" fill-rule="nonzero"/><path fill="#8e4739" d="M 213.386719 274.941406 L 208.5625 274.941406 L 208.5625 268.878906 C 205.910156 266.054688 196.84375 255.765625 196.84375 246.867188 L 196.84375 237.441406 C 196.84375 235.546875 197.582031 233.765625 198.921875 232.421875 C 200.269531 231.078125 202.050781 230.34375 203.945312 230.34375 C 205.835938 230.34375 207.617188 231.078125 208.960938 232.417969 C 210.304688 233.765625 211.042969 235.546875 211.042969 237.441406 L 206.21875 237.441406 C 206.21875 236.832031 205.980469 236.261719 205.550781 235.828125 C 204.695312 234.976562 203.195312 234.96875 202.328125 235.832031 C 201.902344 236.261719 201.664062 236.832031 201.664062 237.441406 L 201.664062 246.867188 C 201.664062 253.679688 209.617188 263.136719 212.679688 266.207031 L 213.382812 266.910156 Z M 213.386719 274.941406 " fill-opacity="1" fill-rule="nonzero"/><g clip-path="url(#e5d47fffbb)"><path fill="#8e4739" d="M 243.855469 291.347656 L 239.03125 291.347656 L 239.03125 277.285156 L 210.976562 277.351562 L 211.042969 291.347656 L 206.21875 291.347656 L 206.21875 277.285156 C 206.21875 276.019531 206.710938 274.824219 207.609375 273.925781 C 208.515625 273.019531 209.710938 272.53125 210.976562 272.53125 L 239.101562 272.53125 C 240.367188 272.53125 241.558594 273.019531 242.457031 273.917969 C 243.359375 274.820312 243.855469 276.015625 243.855469 277.285156 Z M 243.855469 291.347656 " fill-opacity="1" fill-rule="nonzero"/></g><path fill="#8e4739" d="M 168.855469 244.472656 L 164.035156 244.472656 L 164.035156 214.003906 C 164.035156 213.394531 163.796875 212.820312 163.363281 212.390625 C 162.507812 211.535156 161.007812 211.53125 160.144531 212.394531 C 159.71875 212.820312 159.480469 213.394531 159.480469 214.003906 L 159.480469 232.753906 L 154.660156 232.753906 L 154.660156 214.003906 C 154.660156 212.109375 155.394531 210.328125 156.734375 208.984375 C 158.082031 207.640625 159.863281 206.90625 161.757812 206.90625 C 163.648438 206.90625 165.433594 207.640625 166.773438 208.980469 C 168.117188 210.328125 168.855469 212.109375 168.855469 214.003906 Z M 168.855469 244.472656 " fill-opacity="1" fill-rule="nonzero"/><path fill="#8e4739" d="M 159.480469 232.753906 L 154.660156 232.753906 L 154.660156 209.316406 C 154.660156 208.707031 154.421875 208.132812 153.988281 207.703125 C 153.132812 206.847656 151.632812 206.84375 150.769531 207.707031 C 150.34375 208.132812 150.105469 208.707031 150.105469 209.316406 L 150.105469 232.753906 L 145.285156 232.753906 L 145.285156 209.316406 C 145.285156 207.421875 146.019531 205.636719 147.363281 204.296875 C 148.703125 202.953125 150.488281 202.21875 152.382812 202.21875 C 154.273438 202.21875 156.058594 202.953125 157.398438 204.292969 C 158.742188 205.640625 159.480469 207.421875 159.480469 209.316406 Z M 159.480469 232.753906 " fill-opacity="1" fill-rule="nonzero"/><path fill="#8e4739" d="M 150.105469 232.753906 L 145.285156 232.753906 L 145.285156 214.003906 C 145.285156 213.394531 145.046875 212.824219 144.613281 212.390625 C 143.757812 211.535156 142.257812 211.535156 141.394531 212.394531 C 140.96875 212.824219 140.730469 213.394531 140.730469 214.003906 L 140.730469 232.753906 L 135.910156 232.753906 L 135.910156 214.003906 C 135.910156 212.109375 136.644531 210.328125 137.988281 208.984375 C 139.328125 207.640625 141.113281 206.90625 143.007812 206.90625 C 144.898438 206.90625 146.683594 207.640625 148.023438 208.984375 C 149.367188 210.328125 150.105469 212.109375 150.105469 214.003906 Z M 150.105469 232.753906 " fill-opacity="1" fill-rule="nonzero"/><path fill="#8e4739" d="M 138.386719 274.941406 L 133.566406 274.941406 L 133.566406 268.347656 L 126.535156 249.597656 L 126.535156 218.691406 C 126.535156 216.796875 127.269531 215.011719 128.613281 213.671875 C 129.953125 212.328125 131.738281 211.59375 133.632812 211.59375 C 135.523438 211.59375 137.308594 212.328125 138.648438 213.671875 C 139.992188 215.015625 140.730469 216.796875 140.730469 218.691406 L 140.730469 232.753906 L 135.90625 232.753906 L 135.90625 218.691406 C 135.90625 218.082031 135.671875 217.511719 135.238281 217.078125 C 134.382812 216.222656 132.878906 216.222656 132.019531 217.082031 C 131.59375 217.511719 131.355469 218.082031 131.355469 218.691406 L 131.355469 248.722656 L 138.386719 267.472656 Z M 138.386719 274.941406 " fill-opacity="1" fill-rule="nonzero"/><path fill="#8e4739" d="M 166.511719 274.941406 L 161.691406 274.941406 L 161.691406 266.910156 L 162.394531 266.207031 C 165.457031 263.136719 173.410156 253.679688 173.410156 246.867188 L 173.410156 237.441406 C 173.410156 236.832031 173.171875 236.261719 172.738281 235.828125 C 171.882812 234.976562 170.382812 234.96875 169.519531 235.832031 C 169.09375 236.261719 168.855469 236.832031 168.855469 237.441406 L 164.035156 237.441406 C 164.035156 235.550781 164.769531 233.765625 166.109375 232.425781 C 167.457031 231.082031 169.238281 230.34375 171.132812 230.34375 C 173.023438 230.34375 174.808594 231.082031 176.148438 232.421875 C 177.492188 233.769531 178.230469 235.550781 178.230469 237.441406 L 178.230469 246.867188 C 178.230469 255.769531 169.167969 266.058594 166.511719 268.882812 Z M 166.511719 274.941406 " fill-opacity="1" fill-rule="nonzero"/><g clip-path="url(#10062df0c5)"><path fill="#8e4739" d="M 168.855469 291.347656 L 164.035156 291.347656 L 164.035156 277.285156 L 135.976562 277.351562 L 136.042969 291.347656 L 131.222656 291.347656 L 131.222656 277.285156 C 131.222656 276.015625 131.714844 274.824219 132.609375 273.925781 C 133.515625 273.023438 134.710938 272.53125 135.976562 272.53125 L 164.101562 272.53125 C 165.367188 272.53125 166.558594 273.023438 167.457031 273.917969 C 168.359375 274.824219 168.855469 276.015625 168.855469 277.285156 Z M 168.855469 291.347656 " fill-opacity="1" fill-rule="nonzero"/></g><g clip-path="url(#7798c3f8b6)"><path fill="#8e4739" d="M 189.949219 167.128906 L 185.128906 167.128906 L 185.128906 162.441406 C 185.128906 161.832031 184.890625 161.257812 184.460938 160.832031 C 184.027344 160.398438 183.457031 160.164062 182.851562 160.164062 L 168.789062 160.164062 C 166.894531 160.164062 165.109375 159.425781 163.769531 158.082031 C 162.425781 156.742188 161.691406 154.960938 161.691406 153.066406 C 161.691406 151.164062 162.429688 149.382812 163.769531 148.042969 C 165.109375 146.703125 166.890625 145.964844 168.789062 145.964844 L 196.914062 145.964844 C 197.519531 145.964844 198.089844 145.730469 198.523438 145.296875 C 198.949219 144.867188 199.191406 144.296875 199.191406 143.6875 L 199.191406 141.347656 L 204.011719 141.347656 L 204.011719 143.691406 C 204.011719 145.582031 203.273438 147.367188 201.933594 148.707031 C 200.589844 150.050781 198.808594 150.789062 196.914062 150.789062 L 168.789062 150.789062 C 168.179688 150.789062 167.605469 151.023438 167.175781 151.453125 C 166.746094 151.882812 166.511719 152.457031 166.511719 153.066406 C 166.511719 153.671875 166.75 154.242188 167.175781 154.675781 C 167.609375 155.105469 168.179688 155.34375 168.789062 155.34375 L 182.851562 155.34375 C 184.746094 155.34375 186.527344 156.082031 187.867188 157.421875 C 189.210938 158.757812 189.945312 160.539062 189.945312 162.441406 L 189.945312 167.128906 Z M 189.949219 167.128906 " fill-opacity="1" fill-rule="nonzero"/></g><path fill="#8e4739" d="M 128.945312 174.09375 L 133.632812 174.09375 L 133.632812 178.914062 L 128.945312 178.914062 Z M 128.945312 174.09375 " fill-opacity="1" fill-rule="nonzero"/><path fill="#8e4739" d="M 138.320312 174.09375 L 143.007812 174.09375 L 143.007812 178.914062 L 138.320312 178.914062 Z M 138.320312 174.09375 " fill-opacity="1" fill-rule="nonzero"/><path fill="#8e4739" d="M 147.695312 174.09375 L 152.382812 174.09375 L 152.382812 178.914062 L 147.695312 178.914062 Z M 147.695312 174.09375 " fill-opacity="1" fill-rule="nonzero"/><path fill="#8e4739" d="M 157.070312 174.09375 L 161.757812 174.09375 L 161.757812 178.914062 L 157.070312 178.914062 Z M 157.070312 174.09375 " fill-opacity="1" fill-rule="nonzero"/><path fill="#8e4739" d="M 166.445312 174.09375 L 171.132812 174.09375 L 171.132812 178.914062 L 166.445312 178.914062 Z M 166.445312 174.09375 " fill-opacity="1" fill-rule="nonzero"/><path fill="#8e4739" d="M 175.820312 174.09375 L 180.507812 174.09375 L 180.507812 178.914062 L 175.820312 178.914062 Z M 175.820312 174.09375 " fill-opacity="1" fill-rule="nonzero"/><path fill="#8e4739" d="M 185.195312 174.09375 L 189.882812 174.09375 L 189.882812 178.914062 L 185.195312 178.914062 Z M 185.195312 174.09375 " fill-opacity="1" fill-rule="nonzero"/><path fill="#8e4739" d="M 194.570312 174.09375 L 199.257812 174.09375 L 199.257812 178.914062 L 194.570312 178.914062 Z M 194.570312 174.09375 " fill-opacity="1" fill-rule="nonzero"/><path fill="#8e4739" d="M 203.945312 174.09375 L 208.632812 174.09375 L 208.632812 178.914062 L 203.945312 178.914062 Z M 203.945312 174.09375 " fill-opacity="1" fill-rule="nonzero"/><path fill="#8e4739" d="M 213.320312 174.09375 L 218.007812 174.09375 L 218.007812 178.914062 L 213.320312 178.914062 Z M 213.320312 174.09375 " fill-opacity="1" fill-rule="nonzero"/><path fill="#8e4739" d="M 222.695312 174.09375 L 227.382812 174.09375 L 227.382812 178.914062 L 222.695312 178.914062 Z M 222.695312 174.09375 " fill-opacity="1" fill-rule="nonzero"/><path fill="#8e4739" d="M 232.070312 174.09375 L 236.757812 174.09375 L 236.757812 178.914062 L 232.070312 178.914062 Z M 232.070312 174.09375 " fill-opacity="1" fill-rule="nonzero"/><path fill="#8e4739" d="M 241.445312 174.09375 L 246.132812 174.09375 L 246.132812 178.914062 L 241.445312 178.914062 Z M 241.445312 174.09375 " fill-opacity="1" fill-rule="nonzero"/><path fill="#8e4739" d="M 124.257812 183.46875 L 128.945312 183.46875 L 128.945312 188.289062 L 124.257812 188.289062 Z M 124.257812 183.46875 " fill-opacity="1" fill-rule="nonzero"/><path fill="#8e4739" d="M 133.632812 183.46875 L 138.320312 183.46875 L 138.320312 188.289062 L 133.632812 188.289062 Z M 133.632812 183.46875 " fill-opacity="1" fill-rule="nonzero"/><path fill="#8e4739" d="M 143.007812 183.46875 L 147.695312 183.46875 L 147.695312 188.289062 L 143.007812 188.289062 Z M 143.007812 183.46875 " fill-opacity="1" fill-rule="nonzero"/><path fill="#8e4739" d="M 152.382812 183.46875 L 157.070312 183.46875 L 157.070312 188.289062 L 152.382812 188.289062 Z M 152.382812 183.46875 " fill-opacity="1" fill-rule="nonzero"/><path fill="#8e4739" d="M 161.757812 183.46875 L 166.445312 183.46875 L 166.445312 188.289062 L 161.757812 188.289062 Z M 161.757812 183.46875 " fill-opacity="1" fill-rule="nonzero"/><path fill="#8e4739" d="M 171.132812 183.46875 L 175.820312 183.46875 L 175.820312 188.289062 L 171.132812 188.289062 Z M 171.132812 183.46875 " fill-opacity="1" fill-rule="nonzero"/><path fill="#8e4739" d="M 180.507812 183.46875 L 185.195312 183.46875 L 185.195312 188.289062 L 180.507812 188.289062 Z M 180.507812 183.46875 " fill-opacity="1" fill-rule="nonzero"/><path fill="#8e4739" d="M 189.882812 183.46875 L 194.570312 183.46875 L 194.570312 188.289062 L 189.882812 188.289062 Z M 189.882812 183.46875 " fill-opacity="1" fill-rule="nonzero"/><path fill="#8e4739" d="M 199.257812 183.46875 L 203.945312 183.46875 L 203.945312 188.289062 L 199.257812 188.289062 Z M 199.257812 183.46875 " fill-opacity="1" fill-rule="nonzero"/><path fill="#8e4739" d="M 208.632812 183.46875 L 213.320312 183.46875 L 213.320312 188.289062 L 208.632812 188.289062 Z M 208.632812 183.46875 " fill-opacity="1" fill-rule="nonzero"/><path fill="#8e4739" d="M 218.007812 183.46875 L 222.695312 183.46875 L 222.695312 188.289062 L 218.007812 188.289062 Z M 218.007812 183.46875 " fill-opacity="1" fill-rule="nonzero"/><path fill="#8e4739" d="M 227.382812 183.46875 L 232.070312 183.46875 L 232.070312 188.289062 L 227.382812 188.289062 Z M 227.382812 183.46875 " fill-opacity="1" fill-rule="nonzero"/><path fill="#8e4739" d="M 236.757812 183.46875 L 241.445312 183.46875 L 241.445312 188.289062 L 236.757812 188.289062 Z M 236.757812 183.46875 " fill-opacity="1" fill-rule="nonzero"/><path fill="#8e4739" d="M 246.132812 183.46875 L 250.820312 183.46875 L 250.820312 188.289062 L 246.132812 188.289062 Z M 246.132812 183.46875 " fill-opacity="1" fill-rule="nonzero"/><path fill="#8e4739" d="M 128.945312 192.84375 L 133.632812 192.84375 L 133.632812 197.664062 L 128.945312 197.664062 Z M 128.945312 192.84375 " fill-opacity="1" fill-rule="nonzero"/><path fill="#8e4739" d="M 138.320312 192.84375 L 143.007812 192.84375 L 143.007812 197.664062 L 138.320312 197.664062 Z M 138.320312 192.84375 " fill-opacity="1" fill-rule="nonzero"/><path fill="#8e4739" d="M 147.695312 192.84375 L 152.382812 192.84375 L 152.382812 197.664062 L 147.695312 197.664062 Z M 147.695312 192.84375 " fill-opacity="1" fill-rule="nonzero"/><path fill="#8e4739" d="M 157.070312 192.84375 L 161.757812 192.84375 L 161.757812 197.664062 L 157.070312 197.664062 Z M 157.070312 192.84375 " fill-opacity="1" fill-rule="nonzero"/><path fill="#8e4739" d="M 166.445312 192.84375 L 171.132812 192.84375 L 171.132812 197.664062 L 166.445312 197.664062 Z M 166.445312 192.84375 " fill-opacity="1" fill-rule="nonzero"/><path fill="#8e4739" d="M 175.820312 192.84375 L 180.507812 192.84375 L 180.507812 197.664062 L 175.820312 197.664062 Z M 175.820312 192.84375 " fill-opacity="1" fill-rule="nonzero"/><path fill="#8e4739" d="M 185.195312 192.84375 L 189.882812 192.84375 L 189.882812 197.664062 L 185.195312 197.664062 Z M 185.195312 192.84375 " fill-opacity="1" fill-rule="nonzero"/><path fill="#8e4739" d="M 194.570312 192.84375 L 199.257812 192.84375 L 199.257812 197.664062 L 194.570312 197.664062 Z M 194.570312 192.84375 " fill-opacity="1" fill-rule="nonzero"/><path fill="#8e4739" d="M 203.945312 192.84375 L 208.632812 192.84375 L 208.632812 197.664062 L 203.945312 197.664062 Z M 203.945312 192.84375 " fill-opacity="1" fill-rule="nonzero"/><path fill="#8e4739" d="M 213.320312 192.84375 L 218.007812 192.84375 L 218.007812 197.664062 L 213.320312 197.664062 Z M 213.320312 192.84375 " fill-opacity="1" fill-rule="nonzero"/><path fill="#8e4739" d="M 222.695312 192.84375 L 227.382812 192.84375 L 227.382812 197.664062 L 222.695312 197.664062 Z M 222.695312 192.84375 " fill-opacity="1" fill-rule="nonzero"/><path fill="#8e4739" d="M 232.070312 192.84375 L 236.757812 192.84375 L 236.757812 197.664062 L 232.070312 197.664062 Z M 232.070312 192.84375 " fill-opacity="1" fill-rule="nonzero"/><path fill="#8e4739" d="M 241.445312 192.84375 L 246.132812 192.84375 L 246.132812 197.664062 L 241.445312 197.664062 Z M 241.445312 192.84375 " fill-opacity="1" fill-rule="nonzero"/><path fill="#8e4739" d="M 124.257812 202.21875 L 128.945312 202.21875 L 128.945312 207.039062 L 124.257812 207.039062 Z M 124.257812 202.21875 " fill-opacity="1" fill-rule="nonzero"/><path fill="#8e4739" d="M 133.632812 202.21875 L 138.320312 202.21875 L 138.320312 207.039062 L 133.632812 207.039062 Z M 133.632812 202.21875 " fill-opacity="1" fill-rule="nonzero"/><path fill="#8e4739" d="M 171.132812 202.21875 L 175.820312 202.21875 L 175.820312 207.039062 L 171.132812 207.039062 Z M 171.132812 202.21875 " fill-opacity="1" fill-rule="nonzero"/><path fill="#8e4739" d="M 180.507812 202.21875 L 185.195312 202.21875 L 185.195312 207.039062 L 180.507812 207.039062 Z M 180.507812 202.21875 " fill-opacity="1" fill-rule="nonzero"/><path fill="#8e4739" d="M 189.882812 202.21875 L 194.570312 202.21875 L 194.570312 207.039062 L 189.882812 207.039062 Z M 189.882812 202.21875 " fill-opacity="1" fill-rule="nonzero"/><path fill="#8e4739" d="M 199.257812 202.21875 L 203.945312 202.21875 L 203.945312 207.039062 L 199.257812 207.039062 Z M 199.257812 202.21875 " fill-opacity="1" fill-rule="nonzero"/><path fill="#8e4739" d="M 236.757812 202.21875 L 241.445312 202.21875 L 241.445312 207.039062 L 236.757812 207.039062 Z M 236.757812 202.21875 " fill-opacity="1" fill-rule="nonzero"/><path fill="#8e4739" d="M 227.382812 202.21875 L 232.070312 202.21875 L 232.070312 207.039062 L 227.382812 207.039062 Z M 227.382812 202.21875 " fill-opacity="1" fill-rule="nonzero"/><path fill="#8e4739" d="M 246.132812 202.21875 L 250.820312 202.21875 L 250.820312 207.039062 L 246.132812 207.039062 Z M 246.132812 202.21875 " fill-opacity="1" fill-rule="nonzero"/><path fill="#8e4739" d="M 175.820312 211.59375 L 199.257812 211.59375 L 199.257812 216.414062 L 175.820312 216.414062 Z M 175.820312 211.59375 " fill-opacity="1" fill-rule="nonzero"/><g clip-path="url(#a63177ae1b)"><path fill="#8e4739" d="M 214.082031 141.339844 L 185.601562 141.339844 C 179.328125 141.339844 174.242188 136.25 174.242188 130.015625 L 174.242188 111.554688 C 174.242188 105.285156 179.328125 100.195312 185.601562 100.195312 L 198.617188 100.195312 L 198.660156 95.855469 C 196.960938 95.34375 195.699219 93.765625 195.699219 91.871094 C 195.699219 89.585938 197.59375 87.730469 199.882812 87.730469 C 202.167969 87.730469 204.0625 89.585938 204.0625 91.871094 C 204.0625 93.765625 202.761719 95.382812 201.023438 95.894531 L 200.984375 100.195312 L 214.082031 100.195312 C 220.316406 100.195312 225.402344 105.285156 225.402344 111.554688 L 225.402344 130.058594 C 225.402344 136.289062 220.316406 141.339844 214.082031 141.339844 Z M 189.152344 123.429688 C 185.796875 123.429688 183.15625 120.785156 183.15625 117.472656 C 183.15625 114.121094 185.796875 111.476562 189.152344 111.476562 C 192.503906 111.476562 195.109375 114.121094 195.109375 117.472656 C 195.109375 120.785156 192.503906 123.429688 189.152344 123.429688 Z M 189.152344 113.84375 C 187.101562 113.84375 185.523438 115.421875 185.523438 117.472656 C 185.523438 119.484375 187.101562 121.0625 189.152344 121.0625 C 191.164062 121.0625 192.78125 119.484375 192.78125 117.472656 C 192.78125 115.421875 191.164062 113.84375 189.152344 113.84375 Z M 210.570312 123.191406 C 207.21875 123.191406 204.535156 120.511719 204.535156 117.195312 C 204.535156 113.882812 207.21875 111.203125 210.570312 111.203125 C 213.84375 111.203125 216.527344 113.882812 216.527344 117.195312 C 216.527344 120.511719 213.84375 123.191406 210.570312 123.191406 Z M 210.570312 113.566406 C 208.519531 113.566406 206.902344 115.226562 206.902344 117.195312 C 206.902344 119.207031 208.519531 120.867188 210.570312 120.867188 C 212.582031 120.867188 214.160156 119.207031 214.160156 117.195312 C 214.160156 115.144531 212.542969 113.566406 210.570312 113.566406 Z M 199.40625 130.371094 C 197.160156 130.371094 195.1875 129.308594 194.082031 128.359375 C 193.570312 127.925781 193.53125 127.136719 193.964844 126.703125 C 194.398438 126.230469 195.109375 126.152344 195.621094 126.625 C 195.976562 126.941406 199.40625 129.664062 202.683594 126.664062 C 203.15625 126.230469 203.863281 126.230469 204.378906 126.703125 C 204.8125 127.214844 204.8125 127.925781 204.339844 128.398438 C 202.683594 129.820312 200.984375 130.371094 199.40625 130.371094 Z M 199.40625 130.371094 " fill-opacity="1" fill-rule="evenodd"/></g><g clip-path="url(#af4b9bdcbc)"><path fill="#8e4739" d="M 171.875 128.675781 L 171.398438 128.675781 C 168.558594 128.675781 166.195312 126.347656 166.195312 123.46875 L 166.195312 115.421875 C 166.195312 112.542969 168.558594 110.175781 171.398438 110.175781 L 171.953125 110.175781 C 171.914062 110.609375 171.875 111.082031 171.875 111.554688 Z M 171.875 128.675781 " fill-opacity="1" fill-rule="evenodd"/></g><g clip-path="url(#a665d3fd2e)"><path fill="#8e4739" d="M 228.242188 128.675781 L 227.769531 128.675781 L 227.769531 111.554688 C 227.769531 111.042969 227.730469 110.570312 227.691406 110.136719 L 228.242188 110.136719 C 231.164062 110.136719 233.53125 112.464844 233.53125 115.382812 L 233.53125 123.46875 C 233.53125 126.386719 231.164062 128.675781 228.242188 128.675781 Z M 228.242188 128.675781 " fill-opacity="1" fill-rule="evenodd"/></g></svg>