<svg xmlns="http://www.w3.org/2000/svg" xmlns:xlink="http://www.w3.org/1999/xlink" width="500" zoomAndPan="magnify" viewBox="0 0 375 374.999991" height="500" preserveAspectRatio="xMidYMid meet" version="1.0"><defs><filter x="0%" y="0%" width="100%" height="100%" id="1e10592d96"><feColorMatrix values="0 0 0 0 1 0 0 0 0 1 0 0 0 0 1 0 0 0 1 0" color-interpolation-filters="sRGB"/></filter><mask id="290156d79a"><g filter="url(#1e10592d96)"><rect x="-37.5" width="450" fill="#000000" y="-37.499999" height="449.999989" fill-opacity="0.4"/></g></mask><clipPath id="8692186a34"><path d="M 25 0.839844 L 33 0.839844 L 33 9 L 25 9 Z M 25 0.839844 " clip-rule="nonzero"/></clipPath><clipPath id="e154fc8a7d"><path d="M 35 0.839844 L 43 0.839844 L 43 9 L 35 9 Z M 35 0.839844 " clip-rule="nonzero"/></clipPath><clipPath id="1af640e854"><path d="M 0 0.839844 L 9 0.839844 L 9 9 L 0 9 Z M 0 0.839844 " clip-rule="nonzero"/></clipPath><clipPath id="9c38192cdc"><path d="M 14 0.839844 L 23 0.839844 L 23 9 L 14 9 Z M 14 0.839844 " clip-rule="nonzero"/></clipPath><clipPath id="a9bbe33e6c"><path d="M 98 50 L 107 50 L 107 58.679688 L 98 58.679688 Z M 98 50 " clip-rule="nonzero"/></clipPath><clipPath id="a2d1f320a4"><path d="M 22 50 L 31 50 L 31 58.679688 L 22 58.679688 Z M 22 50 " clip-rule="nonzero"/></clipPath><clipPath id="d2c655b15e"><path d="M 13 50 L 22 50 L 22 58.679688 L 13 58.679688 Z M 13 50 " clip-rule="nonzero"/></clipPath><clipPath id="b3a79e65ff"><path d="M 32 50 L 41 50 L 41 58.679688 L 32 58.679688 Z M 32 50 " clip-rule="nonzero"/></clipPath><clipPath id="2b1aace81f"><path d="M 41 50 L 97 50 L 97 58.679688 L 41 58.679688 Z M 41 50 " clip-rule="nonzero"/></clipPath><clipPath id="4b924c0e74"><path d="M 107 50 L 116 50 L 116 58.679688 L 107 58.679688 Z M 107 50 " clip-rule="nonzero"/></clipPath><clipPath id="66c216ac16"><path d="M 117 50 L 126 50 L 126 58.679688 L 117 58.679688 Z M 117 50 " clip-rule="nonzero"/></clipPath><clipPath id="f7af6da79a"><path d="M 126 50 L 135 50 L 135 58.679688 L 126 58.679688 Z M 126 50 " clip-rule="nonzero"/></clipPath><clipPath id="72f6b7f3d0"><path d="M 197 12 L 205.441406 12 L 205.441406 21 L 197 21 Z M 197 12 " clip-rule="nonzero"/></clipPath><clipPath id="7be6fce1ea"><path d="M 169 50 L 187 50 L 187 58.679688 L 169 58.679688 Z M 169 50 " clip-rule="nonzero"/></clipPath><clipPath id="a40b0b6d88"><path d="M 197 31 L 205.441406 31 L 205.441406 40 L 197 40 Z M 197 31 " clip-rule="nonzero"/></clipPath><clipPath id="9301eed4cf"><path d="M 197 41 L 205.441406 41 L 205.441406 58.679688 L 197 58.679688 Z M 197 41 " clip-rule="nonzero"/></clipPath><clipPath id="938bdb8919"><path d="M 188 50 L 196 50 L 196 58.679688 L 188 58.679688 Z M 188 50 " clip-rule="nonzero"/></clipPath><clipPath id="d7e3e8660e"><path d="M 197 22 L 205.441406 22 L 205.441406 31 L 197 31 Z M 197 22 " clip-rule="nonzero"/></clipPath><clipPath id="7e715af15a"><path d="M 148 50 L 157 50 L 157 58.679688 L 148 58.679688 Z M 148 50 " clip-rule="nonzero"/></clipPath><clipPath id="7f34cd8356"><path d="M 158 50 L 167 50 L 167 58.679688 L 158 58.679688 Z M 158 50 " clip-rule="nonzero"/></clipPath><clipPath id="5dabacb4ef"><path d="M 139 50 L 147 50 L 147 58.679688 L 139 58.679688 Z M 139 50 " clip-rule="nonzero"/></clipPath><clipPath id="e0893faffa"><rect x="0" width="206" y="0" height="59"/></clipPath><clipPath id="374ecaaf94"><path d="M 74.0625 149 L 160 149 L 160 242.421875 L 74.0625 242.421875 Z M 74.0625 149 " clip-rule="nonzero"/></clipPath><clipPath id="ad1a50f725"><path d="M 74.0625 185 L 160 185 L 160 242.421875 L 74.0625 242.421875 Z M 74.0625 185 " clip-rule="nonzero"/></clipPath><clipPath id="d46435d709"><path d="M 176 137 L 278 137 L 278 242.421875 L 176 242.421875 Z M 176 137 " clip-rule="nonzero"/></clipPath><clipPath id="fba0aad52c"><path d="M 176 173 L 262 173 L 262 242.421875 L 176 242.421875 Z M 176 173 " clip-rule="nonzero"/></clipPath></defs><path fill="#c9a07a" d="M 297.851562 126.878906 C 297.855469 123.816406 295.375 121.328125 292.308594 121.324219 C 292.308594 121.324219 85.886719 121.058594 85.886719 121.058594 C 82.820312 121.054688 80.332031 123.539062 80.328125 126.601562 C 80.328125 126.601562 80.25 190.167969 80.25 190.167969 C 80.246094 193.230469 82.726562 195.71875 85.789062 195.722656 C 85.789062 195.722656 292.214844 195.988281 292.214844 195.988281 C 295.277344 195.992188 297.765625 193.507812 297.769531 190.445312 C 297.769531 190.445312 297.851562 126.878906 297.851562 126.878906 Z M 297.851562 126.878906 " fill-opacity="1" fill-rule="nonzero"/><path fill="#8e4739" d="M 297.851562 126.878906 C 297.855469 123.816406 295.375 121.328125 292.308594 121.324219 C 292.308594 121.324219 85.886719 121.058594 85.886719 121.058594 C 82.820312 121.054688 80.332031 123.539062 80.328125 126.601562 C 80.328125 126.601562 80.246094 190.167969 80.246094 190.167969 C 80.242188 193.230469 82.726562 195.71875 85.789062 195.722656 C 85.789062 195.722656 292.214844 195.988281 292.214844 195.988281 C 295.277344 195.992188 297.765625 193.507812 297.769531 190.445312 C 297.769531 190.445312 297.851562 126.878906 297.851562 126.878906 Z M 297.851562 126.878906 " fill-opacity="0.2" fill-rule="nonzero"/><path fill="#c9a07a" d="M 295.574219 124.191406 C 295.578125 121.125 293.097656 118.636719 290.03125 118.632812 C 290.03125 118.632812 83.609375 118.367188 83.609375 118.367188 C 80.542969 118.367188 78.054688 120.847656 78.050781 123.914062 C 78.050781 123.914062 77.972656 187.476562 77.972656 187.476562 C 77.96875 190.542969 80.449219 193.027344 83.515625 193.03125 C 83.515625 193.03125 289.9375 193.296875 289.9375 193.296875 C 293.003906 193.300781 295.492188 190.820312 295.496094 187.753906 C 295.496094 187.753906 295.574219 124.191406 295.574219 124.191406 Z M 295.574219 124.191406 " fill-opacity="1" fill-rule="nonzero"/><g mask="url(#290156d79a)"><g transform="matrix(1, 0, 0, 1, 84, 123)"><g clip-path="url(#e0893faffa)"><path fill="#ddd2c6" d="M 166.609375 1.714844 C 166.609375 1.714844 166.597656 8.414062 166.597656 8.414062 C 166.597656 8.71875 166.347656 8.964844 166.042969 8.964844 C 166.042969 8.964844 159.351562 8.957031 159.351562 8.957031 C 159.046875 8.957031 158.796875 8.707031 158.796875 8.402344 C 158.796875 8.402344 158.804688 1.707031 158.804688 1.707031 C 158.808594 1.402344 159.054688 1.15625 159.359375 1.15625 C 159.359375 1.15625 166.054688 1.164062 166.054688 1.164062 C 166.359375 1.164062 166.609375 1.410156 166.609375 1.714844 Z M 166.609375 1.714844 " fill-opacity="1" fill-rule="nonzero"/><path fill="#ddd2c6" d="M 83.714844 1.609375 C 83.714844 1.609375 83.707031 8.308594 83.707031 8.308594 C 83.707031 8.609375 83.457031 8.859375 83.152344 8.859375 C 83.152344 8.859375 76.457031 8.851562 76.457031 8.851562 C 76.152344 8.851562 75.90625 8.597656 75.90625 8.296875 C 75.90625 8.296875 75.914062 1.601562 75.914062 1.601562 C 75.914062 1.296875 76.164062 1.046875 76.464844 1.050781 C 76.464844 1.050781 83.164062 1.058594 83.164062 1.058594 C 83.46875 1.058594 83.714844 1.304688 83.714844 1.609375 Z M 83.714844 1.609375 " fill-opacity="1" fill-rule="nonzero"/><path fill="#ddd2c6" d="M 53.113281 1.570312 C 53.113281 1.570312 53.101562 8.269531 53.101562 8.269531 C 53.101562 8.570312 52.855469 8.820312 52.550781 8.820312 C 52.550781 8.820312 45.855469 8.808594 45.855469 8.808594 C 45.550781 8.808594 45.304688 8.5625 45.304688 8.257812 C 45.304688 8.257812 45.3125 1.5625 45.3125 1.5625 C 45.3125 1.257812 45.5625 1.011719 45.863281 1.011719 C 45.863281 1.011719 52.5625 1.019531 52.5625 1.019531 C 52.863281 1.019531 53.113281 1.265625 53.113281 1.570312 Z M 53.113281 1.570312 " fill-opacity="1" fill-rule="nonzero"/><g clip-path="url(#8692186a34)"><path fill="#ddd2c6" d="M 32.84375 1.542969 C 32.84375 1.542969 32.835938 8.242188 32.835938 8.242188 C 32.835938 8.546875 32.585938 8.792969 32.285156 8.792969 C 32.285156 8.792969 25.585938 8.785156 25.585938 8.785156 C 25.28125 8.785156 25.035156 8.535156 25.035156 8.230469 C 25.035156 8.230469 25.042969 1.535156 25.042969 1.535156 C 25.042969 1.230469 25.292969 0.984375 25.597656 0.984375 C 25.597656 0.984375 32.292969 0.992188 32.292969 0.992188 C 32.597656 0.992188 32.84375 1.242188 32.84375 1.542969 Z M 32.84375 1.542969 " fill-opacity="1" fill-rule="nonzero"/></g><path fill="#ddd2c6" d="M 114.316406 1.648438 C 114.316406 1.648438 114.308594 8.34375 114.308594 8.34375 C 114.308594 8.648438 114.058594 8.898438 113.753906 8.898438 C 113.753906 8.898438 107.058594 8.890625 107.058594 8.890625 C 106.757812 8.890625 106.507812 8.640625 106.507812 8.335938 C 106.507812 8.335938 106.515625 1.640625 106.515625 1.640625 C 106.519531 1.335938 106.765625 1.085938 107.070312 1.085938 C 107.070312 1.085938 113.765625 1.097656 113.765625 1.097656 C 114.070312 1.097656 114.316406 1.34375 114.316406 1.648438 Z M 114.316406 1.648438 " fill-opacity="1" fill-rule="nonzero"/><g clip-path="url(#e154fc8a7d)"><path fill="#ddd2c6" d="M 42.980469 1.558594 C 42.980469 1.558594 42.96875 8.253906 42.96875 8.253906 C 42.96875 8.558594 42.71875 8.804688 42.417969 8.804688 C 42.417969 8.804688 35.722656 8.796875 35.722656 8.796875 C 35.417969 8.796875 35.167969 8.546875 35.167969 8.246094 C 35.167969 8.246094 35.179688 1.546875 35.179688 1.546875 C 35.179688 1.246094 35.425781 0.996094 35.730469 0.996094 C 35.730469 0.996094 42.425781 1.007812 42.425781 1.007812 C 42.730469 1.007812 42.980469 1.253906 42.980469 1.558594 Z M 42.980469 1.558594 " fill-opacity="1" fill-rule="nonzero"/></g><g clip-path="url(#1af640e854)"><path fill="#ddd2c6" d="M 8.175781 1.511719 C 8.175781 1.511719 8.167969 8.210938 8.167969 8.210938 C 8.167969 8.515625 7.917969 8.761719 7.613281 8.761719 C 7.613281 8.761719 0.917969 8.753906 0.917969 8.753906 C 0.613281 8.753906 0.367188 8.503906 0.367188 8.199219 C 0.367188 8.199219 0.375 1.503906 0.375 1.503906 C 0.375 1.199219 0.625 0.953125 0.925781 0.953125 C 0.925781 0.953125 7.625 0.960938 7.625 0.960938 C 7.925781 0.960938 8.175781 1.210938 8.175781 1.511719 Z M 8.175781 1.511719 " fill-opacity="1" fill-rule="nonzero"/></g><g clip-path="url(#9c38192cdc)"><path fill="#ddd2c6" d="M 22.710938 1.53125 C 22.710938 1.53125 22.703125 8.230469 22.703125 8.230469 C 22.703125 8.535156 22.453125 8.78125 22.148438 8.78125 C 22.148438 8.78125 15.453125 8.769531 15.453125 8.769531 C 15.148438 8.769531 14.902344 8.523438 14.902344 8.21875 C 14.902344 8.21875 14.910156 1.523438 14.910156 1.523438 C 14.910156 1.21875 15.15625 0.972656 15.460938 0.972656 C 15.460938 0.972656 22.160156 0.980469 22.160156 0.980469 C 22.460938 0.980469 22.710938 1.226562 22.710938 1.53125 Z M 22.710938 1.53125 " fill-opacity="1" fill-rule="nonzero"/></g><path fill="#ddd2c6" d="M 124.449219 1.664062 C 124.449219 1.664062 124.441406 8.359375 124.441406 8.359375 C 124.441406 8.660156 124.195312 8.910156 123.890625 8.910156 C 123.890625 8.910156 117.191406 8.902344 117.191406 8.902344 C 116.890625 8.902344 116.640625 8.652344 116.640625 8.347656 C 116.640625 8.347656 116.652344 1.652344 116.652344 1.652344 C 116.652344 1.347656 116.898438 1.101562 117.203125 1.101562 C 117.203125 1.101562 123.898438 1.109375 123.898438 1.109375 C 124.203125 1.109375 124.453125 1.359375 124.449219 1.664062 Z M 124.449219 1.664062 " fill-opacity="1" fill-rule="nonzero"/><path fill="#ddd2c6" d="M 63.445312 1.582031 C 63.445312 1.582031 63.4375 8.28125 63.4375 8.28125 C 63.4375 8.585938 63.1875 8.832031 62.886719 8.832031 C 62.886719 8.832031 56.1875 8.824219 56.1875 8.824219 C 55.882812 8.824219 55.636719 8.574219 55.636719 8.269531 C 55.636719 8.269531 55.648438 1.574219 55.648438 1.574219 C 55.648438 1.269531 55.894531 1.023438 56.199219 1.023438 C 56.199219 1.023438 62.894531 1.03125 62.894531 1.03125 C 63.199219 1.03125 63.445312 1.28125 63.445312 1.582031 Z M 63.445312 1.582031 " fill-opacity="1" fill-rule="nonzero"/><path fill="#ddd2c6" d="M 104.183594 1.636719 C 104.183594 1.636719 104.175781 8.332031 104.175781 8.332031 C 104.171875 8.636719 103.925781 8.886719 103.621094 8.886719 C 103.621094 8.886719 96.925781 8.875 96.925781 8.875 C 96.621094 8.875 96.375 8.625 96.375 8.320312 C 96.375 8.320312 96.382812 1.628906 96.382812 1.628906 C 96.382812 1.324219 96.632812 1.074219 96.9375 1.074219 C 96.9375 1.074219 103.632812 1.082031 103.632812 1.082031 C 103.933594 1.085938 104.183594 1.332031 104.183594 1.636719 Z M 104.183594 1.636719 " fill-opacity="1" fill-rule="nonzero"/><path fill="#ddd2c6" d="M 156.804688 1.703125 C 156.804688 1.703125 156.796875 8.402344 156.796875 8.402344 C 156.796875 8.703125 156.550781 8.953125 156.246094 8.953125 C 156.246094 8.953125 149.550781 8.941406 149.550781 8.941406 C 149.246094 8.941406 148.996094 8.695312 148.996094 8.390625 C 148.996094 8.390625 149.007812 1.691406 149.007812 1.691406 C 149.007812 1.390625 149.257812 1.144531 149.558594 1.144531 C 149.558594 1.144531 156.253906 1.152344 156.253906 1.152344 C 156.558594 1.152344 156.808594 1.398438 156.804688 1.703125 Z M 156.804688 1.703125 " fill-opacity="1" fill-rule="nonzero"/><path fill="#ddd2c6" d="M 134.585938 1.675781 C 134.585938 1.675781 134.578125 8.371094 134.578125 8.371094 C 134.578125 8.675781 134.328125 8.925781 134.023438 8.921875 C 134.023438 8.921875 127.328125 8.914062 127.328125 8.914062 C 127.023438 8.914062 126.777344 8.664062 126.777344 8.363281 C 126.777344 8.363281 126.785156 1.664062 126.785156 1.664062 C 126.785156 1.363281 127.035156 1.113281 127.339844 1.113281 C 127.339844 1.113281 134.035156 1.121094 134.035156 1.121094 C 134.335938 1.121094 134.585938 1.371094 134.585938 1.675781 Z M 134.585938 1.675781 " fill-opacity="1" fill-rule="nonzero"/><path fill="#ddd2c6" d="M 93.847656 1.621094 C 93.847656 1.621094 93.839844 8.320312 93.839844 8.320312 C 93.839844 8.625 93.589844 8.871094 93.289062 8.871094 C 93.289062 8.871094 86.589844 8.863281 86.589844 8.863281 C 86.289062 8.863281 86.039062 8.613281 86.039062 8.308594 C 86.039062 8.308594 86.046875 1.613281 86.046875 1.613281 C 86.046875 1.308594 86.296875 1.0625 86.601562 1.0625 C 86.601562 1.0625 93.296875 1.070312 93.296875 1.070312 C 93.601562 1.070312 93.851562 1.320312 93.847656 1.621094 Z M 93.847656 1.621094 " fill-opacity="1" fill-rule="nonzero"/><path fill="#ddd2c6" d="M 73.582031 1.597656 C 73.582031 1.597656 73.574219 8.292969 73.574219 8.292969 C 73.570312 8.597656 73.324219 8.847656 73.019531 8.847656 C 73.019531 8.847656 66.324219 8.835938 66.324219 8.835938 C 66.019531 8.835938 65.769531 8.585938 65.769531 8.28125 C 65.769531 8.28125 65.78125 1.585938 65.78125 1.585938 C 65.78125 1.285156 66.03125 1.035156 66.332031 1.035156 C 66.332031 1.035156 73.027344 1.046875 73.027344 1.046875 C 73.332031 1.046875 73.582031 1.292969 73.582031 1.597656 Z M 73.582031 1.597656 " fill-opacity="1" fill-rule="nonzero"/><path fill="#ddd2c6" d="M 147.007812 1.691406 C 147.007812 1.691406 147 8.386719 147 8.386719 C 147 8.691406 146.75 8.9375 146.445312 8.9375 C 146.445312 8.9375 139.75 8.929688 139.75 8.929688 C 139.445312 8.929688 139.199219 8.683594 139.199219 8.378906 C 139.199219 8.378906 139.207031 1.679688 139.207031 1.679688 C 139.207031 1.375 139.457031 1.128906 139.757812 1.128906 C 139.757812 1.128906 146.457031 1.140625 146.457031 1.140625 C 146.761719 1.140625 147.007812 1.386719 147.007812 1.691406 Z M 147.007812 1.691406 " fill-opacity="1" fill-rule="nonzero"/><path fill="#ddd2c6" d="M 71.925781 13.375 C 71.925781 13.375 71.917969 20.070312 71.917969 20.070312 C 71.917969 20.375 71.667969 20.621094 71.363281 20.621094 C 71.363281 20.621094 64.667969 20.613281 64.667969 20.613281 C 64.367188 20.609375 64.117188 20.363281 64.117188 20.0625 C 64.117188 20.0625 64.125 13.363281 64.125 13.363281 C 64.125 13.058594 64.375 12.8125 64.679688 12.8125 C 64.679688 12.8125 71.375 12.820312 71.375 12.820312 C 71.679688 12.820312 71.925781 13.070312 71.925781 13.375 Z M 71.925781 13.375 " fill-opacity="1" fill-rule="nonzero"/><path fill="#ddd2c6" d="M 62.816406 13.363281 C 62.816406 13.363281 62.808594 20.058594 62.808594 20.058594 C 62.808594 20.359375 62.558594 20.609375 62.257812 20.609375 C 62.257812 20.609375 55.558594 20.601562 55.558594 20.601562 C 55.253906 20.601562 55.007812 20.351562 55.007812 20.046875 C 55.007812 20.046875 55.015625 13.351562 55.015625 13.351562 C 55.015625 13.046875 55.265625 12.800781 55.570312 12.800781 C 55.570312 12.800781 62.265625 12.808594 62.265625 12.808594 C 62.570312 12.808594 62.816406 13.058594 62.816406 13.363281 Z M 62.816406 13.363281 " fill-opacity="1" fill-rule="nonzero"/><path fill="#ddd2c6" d="M 108.363281 13.417969 C 108.363281 13.417969 108.355469 20.117188 108.355469 20.117188 C 108.355469 20.421875 108.109375 20.667969 107.804688 20.667969 C 107.804688 20.667969 101.105469 20.660156 101.105469 20.660156 C 100.800781 20.660156 100.554688 20.410156 100.554688 20.105469 C 100.554688 20.105469 100.5625 13.410156 100.5625 13.410156 C 100.5625 13.105469 100.8125 12.859375 101.117188 12.859375 C 101.117188 12.859375 107.8125 12.867188 107.8125 12.867188 C 108.117188 12.867188 108.363281 13.113281 108.363281 13.417969 Z M 108.363281 13.417969 " fill-opacity="1" fill-rule="nonzero"/><path fill="#ddd2c6" d="M 81.035156 13.382812 C 81.035156 13.382812 81.027344 20.082031 81.027344 20.082031 C 81.027344 20.386719 80.777344 20.632812 80.476562 20.632812 C 80.476562 20.632812 73.777344 20.625 73.777344 20.625 C 73.476562 20.625 73.226562 20.375 73.226562 20.070312 C 73.226562 20.070312 73.234375 13.375 73.234375 13.375 C 73.234375 13.070312 73.484375 12.824219 73.789062 12.824219 C 73.789062 12.824219 80.484375 12.832031 80.484375 12.832031 C 80.789062 12.832031 81.035156 13.078125 81.035156 13.382812 Z M 81.035156 13.382812 " fill-opacity="1" fill-rule="nonzero"/><path fill="#ddd2c6" d="M 99.253906 13.410156 C 99.253906 13.410156 99.246094 20.105469 99.246094 20.105469 C 99.246094 20.410156 98.996094 20.65625 98.691406 20.65625 C 98.691406 20.65625 91.996094 20.644531 91.996094 20.644531 C 91.695312 20.644531 91.445312 20.398438 91.445312 20.09375 C 91.445312 20.09375 91.453125 13.398438 91.453125 13.398438 C 91.453125 13.09375 91.703125 12.847656 92.007812 12.847656 C 92.007812 12.847656 98.703125 12.855469 98.703125 12.855469 C 99.007812 12.855469 99.257812 13.105469 99.253906 13.410156 Z M 99.253906 13.410156 " fill-opacity="1" fill-rule="nonzero"/><path fill="#ddd2c6" d="M 90.144531 13.398438 C 90.144531 13.398438 90.136719 20.09375 90.136719 20.09375 C 90.136719 20.394531 89.886719 20.644531 89.585938 20.644531 C 89.585938 20.644531 82.886719 20.636719 82.886719 20.636719 C 82.582031 20.636719 82.335938 20.386719 82.335938 20.082031 C 82.335938 20.082031 82.347656 13.386719 82.347656 13.386719 C 82.347656 13.082031 82.59375 12.832031 82.898438 12.835938 C 82.898438 12.835938 89.59375 12.84375 89.59375 12.84375 C 89.898438 12.84375 90.144531 13.09375 90.144531 13.398438 Z M 90.144531 13.398438 " fill-opacity="1" fill-rule="nonzero"/><path fill="#ddd2c6" d="M 134.570312 13.453125 C 134.570312 13.453125 134.5625 20.148438 134.5625 20.148438 C 134.5625 20.453125 134.3125 20.703125 134.011719 20.699219 C 134.011719 20.699219 119.328125 20.679688 119.328125 20.679688 C 119.023438 20.679688 118.773438 20.433594 118.773438 20.128906 C 118.773438 20.128906 118.78125 13.433594 118.78125 13.433594 C 118.78125 13.128906 119.03125 12.882812 119.335938 12.882812 C 119.335938 12.882812 134.019531 12.898438 134.019531 12.898438 C 134.324219 12.898438 134.570312 13.148438 134.570312 13.453125 Z M 134.570312 13.453125 " fill-opacity="1" fill-rule="nonzero"/><path fill="#ddd2c6" d="M 117.472656 13.433594 C 117.472656 13.433594 117.464844 20.125 117.464844 20.125 C 117.464844 20.429688 117.214844 20.679688 116.910156 20.679688 C 116.910156 20.679688 110.214844 20.671875 110.214844 20.671875 C 109.914062 20.671875 109.664062 20.421875 109.664062 20.117188 C 109.664062 20.117188 109.675781 13.421875 109.675781 13.421875 C 109.675781 13.117188 109.921875 12.867188 110.226562 12.867188 C 110.226562 12.867188 116.921875 12.878906 116.921875 12.878906 C 117.226562 12.878906 117.472656 13.128906 117.472656 13.433594 Z M 117.472656 13.433594 " fill-opacity="1" fill-rule="nonzero"/><path fill="#ddd2c6" d="M 17.269531 13.304688 C 17.269531 13.304688 17.261719 20 17.261719 20 C 17.261719 20.304688 17.011719 20.550781 16.707031 20.550781 C 16.707031 20.550781 10.011719 20.542969 10.011719 20.542969 C 9.707031 20.542969 9.460938 20.292969 9.460938 19.992188 C 9.460938 19.992188 9.46875 13.292969 9.46875 13.292969 C 9.46875 12.988281 9.71875 12.742188 10.019531 12.742188 C 10.019531 12.742188 16.71875 12.75 16.71875 12.75 C 17.023438 12.75 17.269531 13 17.269531 13.304688 Z M 17.269531 13.304688 " fill-opacity="1" fill-rule="nonzero"/><path fill="#ddd2c6" d="M 26.378906 13.3125 C 26.378906 13.3125 26.371094 20.011719 26.371094 20.011719 C 26.371094 20.316406 26.121094 20.5625 25.816406 20.5625 C 25.816406 20.5625 19.121094 20.554688 19.121094 20.554688 C 18.816406 20.554688 18.570312 20.304688 18.570312 20 C 18.570312 20 18.578125 13.304688 18.578125 13.304688 C 18.578125 13 18.828125 12.753906 19.132812 12.753906 C 19.132812 12.753906 25.828125 12.761719 25.828125 12.761719 C 26.128906 12.761719 26.378906 13.011719 26.378906 13.3125 Z M 26.378906 13.3125 " fill-opacity="1" fill-rule="nonzero"/><path fill="#ddd2c6" d="M 35.488281 13.328125 C 35.488281 13.328125 35.480469 20.023438 35.480469 20.023438 C 35.480469 20.328125 35.230469 20.574219 34.929688 20.574219 C 34.929688 20.574219 28.230469 20.566406 28.230469 20.566406 C 27.925781 20.566406 27.679688 20.316406 27.679688 20.011719 C 27.679688 20.011719 27.6875 13.316406 27.6875 13.316406 C 27.6875 13.015625 27.9375 12.765625 28.242188 12.765625 C 28.242188 12.765625 34.9375 12.773438 34.9375 12.773438 C 35.242188 12.773438 35.488281 13.023438 35.488281 13.328125 Z M 35.488281 13.328125 " fill-opacity="1" fill-rule="nonzero"/><path fill="#ddd2c6" d="M 53.707031 13.347656 C 53.707031 13.347656 53.699219 20.046875 53.699219 20.046875 C 53.699219 20.351562 53.449219 20.597656 53.148438 20.597656 C 53.148438 20.597656 46.449219 20.589844 46.449219 20.589844 C 46.148438 20.589844 45.898438 20.339844 45.898438 20.035156 C 45.898438 20.035156 45.90625 13.339844 45.90625 13.339844 C 45.90625 13.035156 46.15625 12.789062 46.460938 12.789062 C 46.460938 12.789062 53.15625 12.796875 53.15625 12.796875 C 53.460938 12.796875 53.707031 13.046875 53.707031 13.347656 Z M 53.707031 13.347656 " fill-opacity="1" fill-rule="nonzero"/><path fill="#ddd2c6" d="M 44.597656 13.339844 C 44.597656 13.339844 44.589844 20.035156 44.589844 20.035156 C 44.589844 20.339844 44.339844 20.585938 44.035156 20.585938 C 44.035156 20.585938 37.339844 20.578125 37.339844 20.578125 C 37.035156 20.578125 36.789062 20.328125 36.789062 20.027344 C 36.789062 20.027344 36.796875 13.328125 36.796875 13.328125 C 36.796875 13.023438 37.046875 12.777344 37.347656 12.777344 C 37.347656 12.777344 44.046875 12.785156 44.046875 12.785156 C 44.351562 12.785156 44.597656 13.035156 44.597656 13.339844 Z M 44.597656 13.339844 " fill-opacity="1" fill-rule="nonzero"/><path fill="#ddd2c6" d="M 8.160156 13.292969 C 8.160156 13.292969 8.152344 19.988281 8.152344 19.988281 C 8.152344 20.292969 7.902344 20.539062 7.601562 20.539062 C 7.601562 20.539062 0.902344 20.53125 0.902344 20.53125 C 0.597656 20.53125 0.351562 20.28125 0.351562 19.976562 C 0.351562 19.976562 0.359375 13.28125 0.359375 13.28125 C 0.359375 12.980469 0.609375 12.730469 0.914062 12.730469 C 0.914062 12.730469 7.609375 12.738281 7.609375 12.738281 C 7.914062 12.738281 8.160156 12.988281 8.160156 13.292969 Z M 8.160156 13.292969 " fill-opacity="1" fill-rule="nonzero"/><path fill="#ddd2c6" d="M 103.449219 48.863281 C 103.449219 48.863281 96.753906 48.855469 96.753906 48.855469 C 96.453125 48.855469 96.203125 48.605469 96.203125 48.304688 C 96.203125 48.304688 96.210938 41.605469 96.210938 41.605469 C 96.210938 41.300781 96.460938 41.054688 96.765625 41.054688 C 96.765625 41.054688 103.460938 41.066406 103.460938 41.066406 C 103.761719 41.066406 104.011719 41.3125 104.011719 41.617188 C 104.011719 41.617188 104.003906 48.3125 104.003906 48.3125 C 104.003906 48.617188 103.753906 48.863281 103.449219 48.863281 Z M 103.449219 48.863281 " fill-opacity="1" fill-rule="nonzero"/><path fill="#ddd2c6" d="M 112.925781 48.878906 C 112.925781 48.878906 106.234375 48.867188 106.234375 48.867188 C 105.929688 48.867188 105.679688 48.617188 105.679688 48.316406 C 105.679688 48.316406 105.6875 41.621094 105.6875 41.621094 C 105.691406 41.316406 105.9375 41.066406 106.242188 41.066406 C 106.242188 41.066406 112.9375 41.078125 112.9375 41.078125 C 113.242188 41.078125 113.492188 41.324219 113.492188 41.628906 C 113.492188 41.628906 113.480469 48.324219 113.480469 48.324219 C 113.480469 48.628906 113.230469 48.878906 112.925781 48.878906 Z M 112.925781 48.878906 " fill-opacity="1" fill-rule="nonzero"/><path fill="#ddd2c6" d="M 32.242188 39.386719 C 32.242188 39.386719 25.546875 39.378906 25.546875 39.378906 C 25.242188 39.378906 24.996094 39.128906 24.996094 38.828125 C 24.996094 38.828125 25.003906 32.128906 25.003906 32.128906 C 25.003906 31.824219 25.253906 31.578125 25.558594 31.578125 C 25.558594 31.578125 32.253906 31.589844 32.253906 31.589844 C 32.554688 31.589844 32.804688 31.835938 32.804688 32.140625 C 32.804688 32.140625 32.796875 38.835938 32.796875 38.835938 C 32.796875 39.140625 32.546875 39.386719 32.242188 39.386719 Z M 32.242188 39.386719 " fill-opacity="1" fill-rule="nonzero"/><path fill="#ddd2c6" d="M 69.902344 39.4375 C 69.902344 39.4375 63.207031 39.425781 63.207031 39.425781 C 62.902344 39.425781 62.652344 39.179688 62.65625 38.875 C 62.65625 38.875 62.664062 32.179688 62.664062 32.179688 C 62.664062 31.875 62.914062 31.628906 63.21875 31.628906 C 63.21875 31.628906 69.910156 31.636719 69.910156 31.636719 C 70.214844 31.636719 70.464844 31.882812 70.464844 32.1875 C 70.464844 32.1875 70.457031 38.886719 70.457031 38.886719 C 70.457031 39.1875 70.207031 39.4375 69.902344 39.4375 Z M 69.902344 39.4375 " fill-opacity="1" fill-rule="nonzero"/><path fill="#ddd2c6" d="M 59.976562 29.484375 C 59.976562 29.484375 59.984375 22.789062 59.984375 22.789062 C 59.984375 22.484375 60.234375 22.238281 60.535156 22.238281 C 60.535156 22.238281 67.234375 22.246094 67.234375 22.246094 C 67.535156 22.246094 67.785156 22.496094 67.785156 22.796875 C 67.785156 22.796875 67.777344 29.496094 67.777344 29.496094 C 67.777344 29.800781 67.527344 30.046875 67.222656 30.046875 C 67.222656 30.046875 60.527344 30.039062 60.527344 30.039062 C 60.222656 30.039062 59.976562 29.789062 59.976562 29.484375 Z M 59.976562 29.484375 " fill-opacity="1" fill-rule="nonzero"/><path fill="#ddd2c6" d="M 107.570312 31.683594 C 107.875 31.683594 108.125 31.933594 108.125 32.234375 C 108.125 32.234375 108.117188 38.933594 108.117188 38.933594 C 108.113281 39.238281 107.867188 39.484375 107.5625 39.484375 C 107.5625 39.484375 100.867188 39.476562 100.867188 39.476562 C 100.5625 39.476562 100.3125 39.226562 100.3125 38.921875 C 100.3125 38.921875 100.324219 32.226562 100.324219 32.226562 C 100.324219 31.921875 100.574219 31.675781 100.875 31.675781 C 100.875 31.675781 107.570312 31.683594 107.570312 31.683594 Z M 107.570312 31.683594 " fill-opacity="1" fill-rule="nonzero"/><path fill="#ddd2c6" d="M 13.347656 29.425781 C 13.347656 29.425781 13.355469 22.730469 13.355469 22.730469 C 13.355469 22.425781 13.609375 22.179688 13.910156 22.179688 C 13.910156 22.179688 20.605469 22.1875 20.605469 22.1875 C 20.910156 22.1875 21.160156 22.4375 21.15625 22.742188 C 21.15625 22.742188 21.148438 29.4375 21.148438 29.4375 C 21.148438 29.738281 20.902344 29.988281 20.597656 29.988281 C 20.597656 29.988281 13.898438 29.976562 13.898438 29.976562 C 13.597656 29.976562 13.347656 29.730469 13.347656 29.425781 Z M 13.347656 29.425781 " fill-opacity="1" fill-rule="nonzero"/><path fill="#ddd2c6" d="M 39.339844 48.230469 C 39.339844 48.230469 39.347656 41.535156 39.347656 41.535156 C 39.347656 41.230469 39.59375 40.980469 39.898438 40.984375 C 39.898438 40.984375 46.597656 40.992188 46.597656 40.992188 C 46.902344 40.992188 47.148438 41.242188 47.148438 41.542969 C 47.148438 41.542969 47.136719 48.238281 47.136719 48.238281 C 47.136719 48.542969 46.890625 48.792969 46.585938 48.792969 C 46.585938 48.792969 39.890625 48.785156 39.890625 48.785156 C 39.585938 48.78125 39.339844 48.535156 39.339844 48.230469 Z M 39.339844 48.230469 " fill-opacity="1" fill-rule="nonzero"/><path fill="#ddd2c6" d="M 0.316406 48.179688 C 0.316406 48.179688 0.324219 41.484375 0.324219 41.484375 C 0.324219 41.179688 0.574219 40.933594 0.875 40.933594 C 0.875 40.933594 18.207031 40.953125 18.207031 40.953125 C 18.511719 40.953125 18.757812 41.203125 18.757812 41.507812 C 18.757812 41.507812 18.75 48.203125 18.75 48.203125 C 18.75 48.507812 18.5 48.753906 18.199219 48.753906 C 18.199219 48.753906 0.867188 48.734375 0.867188 48.734375 C 0.5625 48.730469 0.316406 48.484375 0.316406 48.179688 Z M 0.316406 48.179688 " fill-opacity="1" fill-rule="nonzero"/><path fill="#ddd2c6" d="M 0.328125 38.792969 C 0.328125 38.792969 0.335938 32.097656 0.335938 32.097656 C 0.335938 31.796875 0.585938 31.546875 0.886719 31.546875 C 0.886719 31.546875 13.566406 31.5625 13.566406 31.5625 C 13.871094 31.5625 14.117188 31.8125 14.117188 32.117188 C 14.117188 32.117188 14.109375 38.8125 14.109375 38.8125 C 14.109375 39.117188 13.859375 39.367188 13.558594 39.363281 C 13.558594 39.363281 0.878906 39.347656 0.878906 39.347656 C 0.574219 39.347656 0.328125 39.097656 0.328125 38.792969 Z M 0.328125 38.792969 " fill-opacity="1" fill-rule="nonzero"/><g clip-path="url(#a9bbe33e6c)"><path fill="#ddd2c6" d="M 106.050781 50.867188 C 106.050781 50.867188 106.042969 57.5625 106.042969 57.5625 C 106.039062 57.867188 105.792969 58.117188 105.488281 58.117188 C 105.488281 58.117188 98.792969 58.105469 98.792969 58.105469 C 98.488281 58.105469 98.238281 57.855469 98.238281 57.550781 C 98.238281 57.550781 98.25 50.859375 98.25 50.859375 C 98.25 50.554688 98.5 50.304688 98.804688 50.304688 C 98.804688 50.304688 105.496094 50.3125 105.496094 50.3125 C 105.800781 50.3125 106.050781 50.5625 106.050781 50.867188 Z M 106.050781 50.867188 " fill-opacity="1" fill-rule="nonzero"/></g><path fill="#ddd2c6" d="M 97.277344 29.53125 C 97.277344 29.53125 97.285156 22.839844 97.285156 22.839844 C 97.285156 22.535156 97.535156 22.285156 97.839844 22.285156 C 97.839844 22.285156 104.535156 22.292969 104.535156 22.292969 C 104.835938 22.292969 105.085938 22.542969 105.085938 22.847656 C 105.085938 22.847656 105.078125 29.542969 105.078125 29.542969 C 105.078125 29.847656 104.828125 30.097656 104.523438 30.097656 C 104.523438 30.097656 97.828125 30.085938 97.828125 30.085938 C 97.527344 30.085938 97.277344 29.835938 97.277344 29.53125 Z M 97.277344 29.53125 " fill-opacity="1" fill-rule="nonzero"/><path fill="#ddd2c6" d="M 48.816406 48.242188 C 48.816406 48.242188 48.824219 41.546875 48.824219 41.546875 C 48.824219 41.242188 49.074219 40.996094 49.378906 40.996094 C 49.378906 40.996094 56.074219 41.003906 56.074219 41.003906 C 56.378906 41.003906 56.625 41.253906 56.625 41.554688 C 56.625 41.554688 56.617188 48.253906 56.617188 48.253906 C 56.613281 48.554688 56.367188 48.804688 56.0625 48.804688 C 56.0625 48.804688 49.367188 48.796875 49.367188 48.796875 C 49.0625 48.792969 48.816406 48.546875 48.816406 48.242188 Z M 48.816406 48.242188 " fill-opacity="1" fill-rule="nonzero"/><path fill="#ddd2c6" d="M 51.074219 39.414062 C 51.074219 39.414062 44.378906 39.402344 44.378906 39.402344 C 44.074219 39.402344 43.824219 39.15625 43.824219 38.851562 C 43.824219 38.851562 43.832031 32.15625 43.832031 32.15625 C 43.835938 31.851562 44.082031 31.601562 44.386719 31.601562 C 44.386719 31.601562 51.082031 31.609375 51.082031 31.609375 C 51.386719 31.609375 51.636719 31.859375 51.632812 32.164062 C 51.632812 32.164062 51.625 38.859375 51.625 38.859375 C 51.625 39.164062 51.378906 39.414062 51.074219 39.414062 Z M 51.074219 39.414062 " fill-opacity="1" fill-rule="nonzero"/><g clip-path="url(#a2d1f320a4)"><path fill="#ddd2c6" d="M 30.792969 50.769531 C 30.792969 50.769531 30.78125 57.46875 30.78125 57.46875 C 30.78125 57.769531 30.535156 58.019531 30.230469 58.019531 C 30.230469 58.019531 23.535156 58.011719 23.535156 58.011719 C 23.230469 58.011719 22.984375 57.757812 22.984375 57.457031 C 22.984375 57.457031 22.992188 50.761719 22.992188 50.761719 C 22.992188 50.457031 23.242188 50.210938 23.542969 50.210938 C 23.542969 50.210938 30.242188 50.21875 30.242188 50.21875 C 30.542969 50.21875 30.792969 50.464844 30.792969 50.769531 Z M 30.792969 50.769531 " fill-opacity="1" fill-rule="nonzero"/></g><path fill="#ddd2c6" d="M 22.675781 29.4375 C 22.675781 29.4375 22.683594 22.742188 22.683594 22.742188 C 22.683594 22.4375 22.929688 22.191406 23.234375 22.191406 C 23.234375 22.191406 29.933594 22.199219 29.933594 22.199219 C 30.238281 22.199219 30.484375 22.449219 30.484375 22.75 C 30.484375 22.75 30.472656 29.449219 30.472656 29.449219 C 30.472656 29.753906 30.226562 30 29.921875 30 C 29.921875 30 23.226562 29.992188 23.226562 29.992188 C 22.921875 29.992188 22.675781 29.742188 22.675781 29.4375 Z M 22.675781 29.4375 " fill-opacity="1" fill-rule="nonzero"/><path fill="#ddd2c6" d="M 32 29.449219 C 32 29.449219 32.007812 22.753906 32.007812 22.753906 C 32.007812 22.449219 32.257812 22.203125 32.5625 22.203125 C 32.5625 22.203125 39.257812 22.210938 39.257812 22.210938 C 39.5625 22.210938 39.808594 22.460938 39.808594 22.761719 C 39.808594 22.761719 39.800781 29.460938 39.800781 29.460938 C 39.800781 29.761719 39.550781 30.011719 39.246094 30.011719 C 39.246094 30.011719 32.550781 30.003906 32.550781 30.003906 C 32.25 30.003906 32 29.753906 32 29.449219 Z M 32 29.449219 " fill-opacity="1" fill-rule="nonzero"/><path fill="#ddd2c6" d="M 60.488281 39.421875 C 60.488281 39.421875 53.792969 39.414062 53.792969 39.414062 C 53.488281 39.414062 53.238281 39.167969 53.238281 38.863281 C 53.238281 38.863281 53.246094 32.164062 53.246094 32.164062 C 53.25 31.863281 53.5 31.613281 53.800781 31.613281 C 53.800781 31.613281 60.496094 31.625 60.496094 31.625 C 60.800781 31.625 61.050781 31.871094 61.050781 32.175781 C 61.050781 32.175781 61.042969 38.871094 61.042969 38.871094 C 61.039062 39.175781 60.792969 39.425781 60.488281 39.421875 Z M 60.488281 39.421875 " fill-opacity="1" fill-rule="nonzero"/><path fill="#ddd2c6" d="M 0.339844 29.410156 C 0.339844 29.410156 0.347656 22.714844 0.347656 22.714844 C 0.347656 22.410156 0.597656 22.160156 0.902344 22.160156 C 0.902344 22.160156 11.234375 22.175781 11.234375 22.175781 C 11.535156 22.175781 11.785156 22.425781 11.785156 22.726562 C 11.785156 22.726562 11.777344 29.421875 11.777344 29.421875 C 11.777344 29.726562 11.527344 29.976562 11.222656 29.976562 C 11.222656 29.976562 0.890625 29.964844 0.890625 29.964844 C 0.585938 29.960938 0.339844 29.714844 0.339844 29.410156 Z M 0.339844 29.410156 " fill-opacity="1" fill-rule="nonzero"/><path fill="#ddd2c6" d="M 41.660156 39.402344 C 41.660156 39.402344 34.960938 39.390625 34.960938 39.390625 C 34.660156 39.390625 34.410156 39.140625 34.410156 38.835938 C 34.410156 38.835938 34.417969 32.144531 34.417969 32.144531 C 34.417969 31.839844 34.667969 31.589844 34.972656 31.589844 C 34.972656 31.589844 41.667969 31.601562 41.667969 31.601562 C 41.972656 31.601562 42.21875 31.847656 42.21875 32.152344 C 42.21875 32.152344 42.210938 38.847656 42.210938 38.847656 C 42.210938 39.152344 41.960938 39.402344 41.660156 39.402344 Z M 41.660156 39.402344 " fill-opacity="1" fill-rule="nonzero"/><path fill="#ddd2c6" d="M 12.09375 50.746094 C 12.09375 50.746094 12.085938 57.441406 12.085938 57.441406 C 12.085938 57.746094 11.835938 57.996094 11.53125 57.992188 C 11.53125 57.992188 0.855469 57.980469 0.855469 57.980469 C 0.550781 57.980469 0.300781 57.734375 0.300781 57.429688 C 0.300781 57.429688 0.3125 50.730469 0.3125 50.730469 C 0.3125 50.425781 0.5625 50.179688 0.867188 50.179688 C 0.867188 50.179688 11.542969 50.191406 11.542969 50.191406 C 11.847656 50.191406 12.09375 50.445312 12.09375 50.746094 Z M 12.09375 50.746094 " fill-opacity="1" fill-rule="nonzero"/><path fill="#ddd2c6" d="M 29.859375 48.21875 C 29.859375 48.21875 29.871094 41.523438 29.871094 41.523438 C 29.871094 41.21875 30.117188 40.96875 30.421875 40.972656 C 30.421875 40.972656 37.117188 40.980469 37.117188 40.980469 C 37.421875 40.980469 37.671875 41.226562 37.671875 41.53125 C 37.671875 41.53125 37.660156 48.230469 37.660156 48.230469 C 37.660156 48.53125 37.410156 48.78125 37.109375 48.78125 C 37.109375 48.78125 30.414062 48.773438 30.414062 48.773438 C 30.109375 48.773438 29.859375 48.519531 29.859375 48.21875 Z M 29.859375 48.21875 " fill-opacity="1" fill-rule="nonzero"/><path fill="#ddd2c6" d="M 50.652344 29.476562 C 50.652344 29.476562 50.660156 22.777344 50.660156 22.777344 C 50.660156 22.472656 50.90625 22.226562 51.210938 22.226562 C 51.210938 22.226562 57.910156 22.234375 57.910156 22.234375 C 58.210938 22.234375 58.460938 22.484375 58.460938 22.789062 C 58.460938 22.789062 58.449219 29.484375 58.449219 29.484375 C 58.449219 29.789062 58.203125 30.035156 57.898438 30.035156 C 57.898438 30.035156 51.199219 30.027344 51.199219 30.027344 C 50.898438 30.027344 50.652344 29.777344 50.652344 29.476562 Z M 50.652344 29.476562 " fill-opacity="1" fill-rule="nonzero"/><path fill="#ddd2c6" d="M 58.292969 48.253906 C 58.292969 48.253906 58.300781 41.558594 58.300781 41.558594 C 58.300781 41.253906 58.550781 41.007812 58.855469 41.007812 C 58.855469 41.007812 65.550781 41.015625 65.550781 41.015625 C 65.855469 41.015625 66.101562 41.265625 66.101562 41.566406 C 66.101562 41.566406 66.09375 48.265625 66.09375 48.265625 C 66.09375 48.570312 65.84375 48.816406 65.542969 48.816406 C 65.542969 48.816406 58.84375 48.808594 58.84375 48.808594 C 58.539062 48.808594 58.292969 48.558594 58.292969 48.253906 Z M 58.292969 48.253906 " fill-opacity="1" fill-rule="nonzero"/><g clip-path="url(#d2c655b15e)"><path fill="#ddd2c6" d="M 21.375 50.757812 C 21.375 50.757812 21.367188 57.457031 21.367188 57.457031 C 21.367188 57.757812 21.121094 58.007812 20.816406 58.007812 C 20.816406 58.007812 14.117188 57.996094 14.117188 57.996094 C 13.816406 57.996094 13.570312 57.75 13.570312 57.445312 C 13.570312 57.445312 13.578125 50.746094 13.578125 50.746094 C 13.578125 50.445312 13.824219 50.199219 14.128906 50.199219 C 14.128906 50.199219 20.828125 50.207031 20.828125 50.207031 C 21.128906 50.207031 21.375 50.453125 21.375 50.757812 Z M 21.375 50.757812 " fill-opacity="1" fill-rule="nonzero"/></g><g clip-path="url(#b3a79e65ff)"><path fill="#ddd2c6" d="M 40.117188 50.78125 C 40.117188 50.78125 40.109375 57.476562 40.109375 57.476562 C 40.109375 57.78125 39.863281 58.03125 39.558594 58.03125 C 39.558594 58.03125 32.859375 58.023438 32.859375 58.023438 C 32.558594 58.023438 32.308594 57.773438 32.308594 57.46875 C 32.308594 57.46875 32.320312 50.773438 32.320312 50.773438 C 32.320312 50.46875 32.566406 50.21875 32.871094 50.21875 C 32.871094 50.21875 39.566406 50.230469 39.566406 50.230469 C 39.871094 50.230469 40.117188 50.480469 40.117188 50.78125 Z M 40.117188 50.78125 " fill-opacity="1" fill-rule="nonzero"/></g><path fill="#ddd2c6" d="M 20.382812 48.207031 C 20.382812 48.207031 20.390625 41.507812 20.390625 41.507812 C 20.390625 41.207031 20.640625 40.957031 20.945312 40.957031 C 20.945312 40.957031 27.640625 40.96875 27.640625 40.96875 C 27.945312 40.96875 28.191406 41.214844 28.191406 41.519531 C 28.191406 41.519531 28.183594 48.21875 28.183594 48.21875 C 28.183594 48.519531 27.933594 48.765625 27.632812 48.765625 C 27.632812 48.765625 20.933594 48.757812 20.933594 48.757812 C 20.632812 48.757812 20.382812 48.511719 20.382812 48.207031 Z M 20.382812 48.207031 " fill-opacity="1" fill-rule="nonzero"/><path fill="#ddd2c6" d="M 22.828125 39.375 C 22.828125 39.375 16.132812 39.367188 16.132812 39.367188 C 15.828125 39.367188 15.578125 39.117188 15.578125 38.816406 C 15.578125 38.816406 15.589844 32.117188 15.589844 32.117188 C 15.589844 31.8125 15.839844 31.566406 16.144531 31.566406 C 16.144531 31.566406 22.839844 31.574219 22.839844 31.574219 C 23.140625 31.574219 23.390625 31.824219 23.390625 32.128906 C 23.390625 32.128906 23.382812 38.824219 23.382812 38.824219 C 23.382812 39.128906 23.132812 39.375 22.828125 39.375 Z M 22.828125 39.375 " fill-opacity="1" fill-rule="nonzero"/><path fill="#ddd2c6" d="M 41.324219 29.460938 C 41.324219 29.460938 41.332031 22.765625 41.332031 22.765625 C 41.332031 22.460938 41.582031 22.214844 41.886719 22.214844 C 41.886719 22.214844 48.582031 22.222656 48.582031 22.222656 C 48.886719 22.222656 49.136719 22.472656 49.132812 22.777344 C 49.132812 22.777344 49.125 29.472656 49.125 29.472656 C 49.125 29.773438 48.878906 30.023438 48.574219 30.023438 C 48.574219 30.023438 41.875 30.015625 41.875 30.015625 C 41.574219 30.015625 41.324219 29.765625 41.324219 29.460938 Z M 41.324219 29.460938 " fill-opacity="1" fill-rule="nonzero"/><path fill="#ddd2c6" d="M 67.769531 48.265625 C 67.769531 48.265625 67.777344 41.570312 67.777344 41.570312 C 67.78125 41.265625 68.027344 41.019531 68.332031 41.019531 C 68.332031 41.019531 75.027344 41.027344 75.027344 41.027344 C 75.332031 41.027344 75.582031 41.277344 75.582031 41.578125 C 75.582031 41.578125 75.570312 48.277344 75.570312 48.277344 C 75.570312 48.582031 75.320312 48.828125 75.019531 48.828125 C 75.019531 48.828125 68.324219 48.820312 68.324219 48.820312 C 68.019531 48.820312 67.769531 48.570312 67.769531 48.265625 Z M 67.769531 48.265625 " fill-opacity="1" fill-rule="nonzero"/><path fill="#ddd2c6" d="M 79.316406 39.449219 C 79.316406 39.449219 72.621094 39.441406 72.621094 39.441406 C 72.316406 39.441406 72.070312 39.191406 72.070312 38.886719 C 72.070312 38.886719 72.078125 32.191406 72.078125 32.191406 C 72.078125 31.886719 72.328125 31.636719 72.632812 31.640625 C 72.632812 31.640625 79.328125 31.648438 79.328125 31.648438 C 79.628906 31.648438 79.878906 31.894531 79.878906 32.199219 C 79.878906 32.199219 79.871094 38.898438 79.871094 38.898438 C 79.871094 39.199219 79.621094 39.449219 79.316406 39.449219 Z M 79.316406 39.449219 " fill-opacity="1" fill-rule="nonzero"/><path fill="#ddd2c6" d="M 69.300781 29.496094 C 69.300781 29.496094 69.308594 22.800781 69.308594 22.800781 C 69.308594 22.5 69.558594 22.25 69.863281 22.25 C 69.863281 22.25 76.558594 22.257812 76.558594 22.257812 C 76.863281 22.257812 77.109375 22.507812 77.109375 22.8125 C 77.109375 22.8125 77.101562 29.507812 77.101562 29.507812 C 77.101562 29.808594 76.851562 30.058594 76.550781 30.058594 C 76.550781 30.058594 69.851562 30.050781 69.851562 30.050781 C 69.550781 30.050781 69.300781 29.800781 69.300781 29.496094 Z M 69.300781 29.496094 " fill-opacity="1" fill-rule="nonzero"/><path fill="#ddd2c6" d="M 77.25 48.277344 C 77.25 48.277344 77.257812 41.582031 77.257812 41.582031 C 77.257812 41.28125 77.503906 41.03125 77.808594 41.03125 C 77.808594 41.03125 84.507812 41.039062 84.507812 41.039062 C 84.8125 41.039062 85.058594 41.289062 85.058594 41.59375 C 85.058594 41.59375 85.046875 48.289062 85.046875 48.289062 C 85.046875 48.589844 84.800781 48.839844 84.496094 48.839844 C 84.496094 48.839844 77.800781 48.832031 77.800781 48.832031 C 77.496094 48.832031 77.25 48.582031 77.25 48.277344 Z M 77.25 48.277344 " fill-opacity="1" fill-rule="nonzero"/><path fill="#ddd2c6" d="M 78.625 29.511719 C 78.625 29.511719 78.636719 22.8125 78.636719 22.8125 C 78.636719 22.507812 78.882812 22.261719 79.1875 22.261719 C 79.1875 22.261719 85.882812 22.269531 85.882812 22.269531 C 86.1875 22.269531 86.433594 22.519531 86.433594 22.824219 C 86.433594 22.824219 86.425781 29.519531 86.425781 29.519531 C 86.425781 29.824219 86.179688 30.070312 85.875 30.070312 C 85.875 30.070312 79.175781 30.0625 79.175781 30.0625 C 78.875 30.0625 78.625 29.8125 78.625 29.511719 Z M 78.625 29.511719 " fill-opacity="1" fill-rule="nonzero"/><path fill="#ddd2c6" d="M 88.734375 39.460938 C 88.734375 39.460938 82.035156 39.453125 82.035156 39.453125 C 81.734375 39.453125 81.484375 39.203125 81.484375 38.898438 C 81.484375 38.898438 81.492188 32.203125 81.492188 32.203125 C 81.492188 31.898438 81.742188 31.648438 82.046875 31.648438 C 82.046875 31.648438 88.742188 31.660156 88.742188 31.660156 C 89.046875 31.660156 89.296875 31.910156 89.292969 32.214844 C 89.292969 32.214844 89.285156 38.90625 89.285156 38.90625 C 89.285156 39.210938 89.035156 39.460938 88.734375 39.460938 Z M 88.734375 39.460938 " fill-opacity="1" fill-rule="nonzero"/><path fill="#ddd2c6" d="M 86.726562 48.292969 C 86.726562 48.292969 86.734375 41.59375 86.734375 41.59375 C 86.734375 41.289062 86.984375 41.042969 87.289062 41.042969 C 87.289062 41.042969 93.984375 41.050781 93.984375 41.050781 C 94.289062 41.050781 94.535156 41.300781 94.535156 41.605469 C 94.535156 41.605469 94.527344 48.300781 94.527344 48.300781 C 94.523438 48.605469 94.277344 48.851562 93.972656 48.851562 C 93.972656 48.851562 87.277344 48.84375 87.277344 48.84375 C 86.972656 48.84375 86.726562 48.59375 86.726562 48.292969 Z M 86.726562 48.292969 " fill-opacity="1" fill-rule="nonzero"/><path fill="#ddd2c6" d="M 87.953125 29.523438 C 87.953125 29.523438 87.960938 22.824219 87.960938 22.824219 C 87.960938 22.519531 88.207031 22.273438 88.511719 22.273438 C 88.511719 22.273438 95.210938 22.28125 95.210938 22.28125 C 95.511719 22.285156 95.761719 22.53125 95.761719 22.835938 C 95.761719 22.835938 95.753906 29.53125 95.753906 29.53125 C 95.753906 29.835938 95.503906 30.082031 95.199219 30.082031 C 95.199219 30.082031 88.503906 30.074219 88.503906 30.074219 C 88.199219 30.074219 87.953125 29.824219 87.953125 29.523438 Z M 87.953125 29.523438 " fill-opacity="1" fill-rule="nonzero"/><g clip-path="url(#2b1aace81f)"><path fill="#ddd2c6" d="M 96.199219 50.851562 C 96.199219 50.851562 96.191406 57.550781 96.191406 57.550781 C 96.191406 57.855469 95.941406 58.101562 95.636719 58.101562 C 95.636719 58.101562 42.113281 58.03125 42.113281 58.03125 C 41.8125 58.03125 41.5625 57.785156 41.5625 57.480469 C 41.5625 57.480469 41.570312 50.785156 41.570312 50.785156 C 41.570312 50.480469 41.820312 50.234375 42.125 50.234375 C 42.125 50.234375 95.648438 50.300781 95.648438 50.300781 C 95.953125 50.300781 96.199219 50.550781 96.199219 50.851562 Z M 96.199219 50.851562 " fill-opacity="1" fill-rule="nonzero"/></g><path fill="#ddd2c6" d="M 98.148438 39.472656 C 98.148438 39.472656 91.453125 39.460938 91.453125 39.460938 C 91.148438 39.460938 90.898438 39.214844 90.898438 38.910156 C 90.898438 38.910156 90.90625 32.214844 90.90625 32.214844 C 90.910156 31.910156 91.15625 31.664062 91.460938 31.664062 C 91.460938 31.664062 98.15625 31.671875 98.15625 31.671875 C 98.460938 31.671875 98.710938 31.921875 98.710938 32.222656 C 98.710938 32.222656 98.699219 38.921875 98.699219 38.921875 C 98.699219 39.226562 98.449219 39.472656 98.148438 39.472656 Z M 98.148438 39.472656 " fill-opacity="1" fill-rule="nonzero"/><path fill="#ddd2c6" d="M 106.601562 29.546875 C 106.601562 29.546875 106.609375 22.847656 106.609375 22.847656 C 106.609375 22.546875 106.859375 22.296875 107.164062 22.296875 C 107.164062 22.296875 113.859375 22.304688 113.859375 22.304688 C 114.164062 22.304688 114.410156 22.554688 114.410156 22.859375 C 114.410156 22.859375 114.402344 29.554688 114.402344 29.554688 C 114.402344 29.859375 114.15625 30.105469 113.851562 30.105469 C 113.851562 30.105469 107.152344 30.097656 107.152344 30.097656 C 106.851562 30.097656 106.601562 29.851562 106.601562 29.546875 Z M 106.601562 29.546875 " fill-opacity="1" fill-rule="nonzero"/><g clip-path="url(#4b924c0e74)"><path fill="#ddd2c6" d="M 115.542969 50.878906 C 115.542969 50.878906 115.53125 57.574219 115.53125 57.574219 C 115.53125 57.878906 115.28125 58.128906 114.980469 58.125 C 114.980469 58.125 108.285156 58.117188 108.285156 58.117188 C 107.980469 58.117188 107.730469 57.871094 107.730469 57.566406 C 107.730469 57.566406 107.742188 50.867188 107.742188 50.867188 C 107.742188 50.566406 107.988281 50.316406 108.292969 50.316406 C 108.292969 50.316406 114.988281 50.324219 114.988281 50.324219 C 115.292969 50.324219 115.542969 50.578125 115.542969 50.878906 Z M 115.542969 50.878906 " fill-opacity="1" fill-rule="nonzero"/></g><path fill="#ddd2c6" d="M 116.988281 31.695312 C 117.289062 31.695312 117.539062 31.945312 117.539062 32.25 C 117.539062 32.25 117.53125 38.945312 117.53125 38.945312 C 117.53125 39.25 117.28125 39.496094 116.976562 39.496094 C 116.976562 39.496094 110.28125 39.488281 110.28125 39.488281 C 109.976562 39.488281 109.730469 39.238281 109.730469 38.933594 C 109.730469 38.933594 109.738281 32.238281 109.738281 32.238281 C 109.738281 31.9375 109.988281 31.6875 110.289062 31.6875 C 110.289062 31.6875 116.988281 31.695312 116.988281 31.695312 Z M 116.988281 31.695312 " fill-opacity="1" fill-rule="nonzero"/><path fill="#ddd2c6" d="M 115.929688 29.558594 C 115.929688 29.558594 115.9375 22.859375 115.9375 22.859375 C 115.9375 22.554688 116.183594 22.308594 116.488281 22.308594 C 116.488281 22.308594 123.1875 22.320312 123.1875 22.320312 C 123.492188 22.320312 123.738281 22.566406 123.738281 22.871094 C 123.738281 22.871094 123.730469 29.566406 123.730469 29.566406 C 123.730469 29.871094 123.480469 30.117188 123.175781 30.117188 C 123.175781 30.117188 116.480469 30.109375 116.480469 30.109375 C 116.175781 30.109375 115.929688 29.859375 115.929688 29.558594 Z M 115.929688 29.558594 " fill-opacity="1" fill-rule="nonzero"/><g clip-path="url(#66c216ac16)"><path fill="#ddd2c6" d="M 125.03125 50.890625 C 125.03125 50.890625 125.023438 57.585938 125.023438 57.585938 C 125.023438 57.890625 124.773438 58.136719 124.46875 58.136719 C 124.46875 58.136719 117.773438 58.128906 117.773438 58.128906 C 117.46875 58.128906 117.222656 57.882812 117.222656 57.578125 C 117.222656 57.578125 117.230469 50.878906 117.230469 50.878906 C 117.230469 50.578125 117.480469 50.328125 117.785156 50.328125 C 117.785156 50.328125 124.480469 50.339844 124.480469 50.339844 C 124.785156 50.339844 125.03125 50.585938 125.03125 50.890625 Z M 125.03125 50.890625 " fill-opacity="1" fill-rule="nonzero"/></g><path fill="#ddd2c6" d="M 119.707031 31.699219 C 119.707031 31.699219 124.699219 31.707031 124.699219 31.707031 C 124.699219 31.707031 125.800781 31.707031 125.800781 31.707031 C 125.800781 31.707031 126.402344 31.707031 126.402344 31.707031 C 126.703125 31.707031 126.953125 31.957031 126.953125 32.261719 C 126.953125 32.261719 126.945312 38.957031 126.945312 38.957031 C 126.945312 39.261719 126.695312 39.507812 126.390625 39.507812 C 126.390625 39.507812 125.792969 39.507812 125.792969 39.507812 C 125.488281 39.507812 124.992188 39.507812 124.6875 39.507812 C 124.6875 39.507812 119.695312 39.5 119.695312 39.5 C 119.390625 39.5 119.144531 39.25 119.144531 38.949219 C 119.144531 38.949219 119.152344 32.25 119.152344 32.25 C 119.152344 31.945312 119.402344 31.699219 119.707031 31.699219 Z M 119.707031 31.699219 " fill-opacity="1" fill-rule="nonzero"/><path fill="#ddd2c6" d="M 134.558594 22.886719 C 134.558594 22.886719 134.539062 38.964844 134.539062 38.964844 C 134.539062 39.269531 134.289062 39.519531 133.984375 39.519531 C 133.984375 39.519531 129.050781 39.511719 129.050781 39.511719 C 128.746094 39.511719 128.496094 39.261719 128.5 38.960938 C 128.5 38.960938 128.507812 30.675781 128.507812 30.675781 C 128.507812 30.375 128.261719 30.125 127.957031 30.125 C 127.957031 30.125 125.804688 30.121094 125.804688 30.121094 C 125.5 30.121094 125.253906 29.871094 125.253906 29.570312 C 125.253906 29.570312 125.261719 22.875 125.261719 22.875 C 125.261719 22.570312 125.511719 22.320312 125.816406 22.320312 C 125.816406 22.320312 134.007812 22.332031 134.007812 22.332031 C 134.308594 22.332031 134.558594 22.582031 134.558594 22.886719 Z M 134.558594 22.886719 " fill-opacity="1" fill-rule="nonzero"/><g clip-path="url(#f7af6da79a)"><path fill="#ddd2c6" d="M 134.523438 50.902344 C 134.523438 50.902344 134.515625 57.601562 134.515625 57.601562 C 134.511719 57.902344 134.265625 58.152344 133.960938 58.152344 C 133.960938 58.152344 127.265625 58.140625 127.265625 58.140625 C 126.960938 58.140625 126.710938 57.894531 126.710938 57.589844 C 126.710938 57.589844 126.722656 50.894531 126.722656 50.894531 C 126.722656 50.589844 126.972656 50.34375 127.273438 50.34375 C 127.273438 50.34375 133.972656 50.351562 133.972656 50.351562 C 134.273438 50.351562 134.523438 50.597656 134.523438 50.902344 Z M 134.523438 50.902344 " fill-opacity="1" fill-rule="nonzero"/></g><path fill="#ddd2c6" d="M 134.535156 41.65625 C 134.535156 41.65625 134.527344 48.351562 134.527344 48.351562 C 134.527344 48.65625 134.277344 48.902344 133.972656 48.902344 C 133.972656 48.902344 115.710938 48.878906 115.710938 48.878906 C 115.40625 48.878906 115.160156 48.628906 115.160156 48.328125 C 115.160156 48.328125 115.167969 41.632812 115.167969 41.632812 C 115.167969 41.328125 115.414062 41.078125 115.71875 41.078125 C 115.71875 41.078125 133.984375 41.105469 133.984375 41.105469 C 134.289062 41.105469 134.535156 41.351562 134.535156 41.65625 Z M 134.535156 41.65625 " fill-opacity="1" fill-rule="nonzero"/><path fill="#ddd2c6" d="M 195.921875 13.53125 C 195.921875 13.53125 195.914062 20.226562 195.914062 20.226562 C 195.910156 20.53125 195.664062 20.78125 195.359375 20.777344 C 195.359375 20.777344 188.664062 20.769531 188.664062 20.769531 C 188.359375 20.769531 188.109375 20.523438 188.109375 20.21875 C 188.109375 20.21875 188.117188 13.519531 188.117188 13.519531 C 188.121094 13.21875 188.367188 12.96875 188.671875 12.96875 C 188.671875 12.96875 195.367188 12.980469 195.367188 12.980469 C 195.671875 12.980469 195.921875 13.230469 195.921875 13.53125 Z M 195.921875 13.53125 " fill-opacity="1" fill-rule="nonzero"/><path fill="#ddd2c6" d="M 166.589844 13.492188 C 166.589844 13.492188 166.582031 20.191406 166.582031 20.191406 C 166.582031 20.496094 166.335938 20.742188 166.03125 20.742188 C 166.03125 20.742188 159.332031 20.734375 159.332031 20.734375 C 159.03125 20.734375 158.78125 20.484375 158.78125 20.179688 C 158.78125 20.179688 158.789062 13.484375 158.789062 13.484375 C 158.789062 13.179688 159.039062 12.933594 159.34375 12.933594 C 159.34375 12.933594 166.039062 12.941406 166.039062 12.941406 C 166.34375 12.941406 166.59375 13.191406 166.589844 13.492188 Z M 166.589844 13.492188 " fill-opacity="1" fill-rule="nonzero"/><path fill="#ddd2c6" d="M 186.605469 13.519531 C 186.605469 13.519531 186.59375 20.214844 186.59375 20.214844 C 186.59375 20.519531 186.347656 20.769531 186.042969 20.769531 C 186.042969 20.769531 179.347656 20.757812 179.347656 20.757812 C 179.042969 20.757812 178.796875 20.507812 178.796875 20.207031 C 178.796875 20.207031 178.804688 13.511719 178.804688 13.511719 C 178.804688 13.207031 179.050781 12.957031 179.355469 12.957031 C 179.355469 12.957031 186.054688 12.964844 186.054688 12.964844 C 186.355469 12.96875 186.605469 13.214844 186.605469 13.519531 Z M 186.605469 13.519531 " fill-opacity="1" fill-rule="nonzero"/><path fill="#ddd2c6" d="M 177.285156 13.507812 C 177.285156 13.507812 177.277344 20.203125 177.277344 20.203125 C 177.277344 20.507812 177.03125 20.757812 176.726562 20.757812 C 176.726562 20.757812 170.027344 20.746094 170.027344 20.746094 C 169.726562 20.746094 169.476562 20.496094 169.476562 20.195312 C 169.476562 20.195312 169.488281 13.5 169.488281 13.5 C 169.488281 13.195312 169.738281 12.945312 170.039062 12.945312 C 170.039062 12.945312 176.734375 12.957031 176.734375 12.957031 C 177.039062 12.957031 177.289062 13.203125 177.285156 13.507812 Z M 177.285156 13.507812 " fill-opacity="1" fill-rule="nonzero"/><path fill="#ddd2c6" d="M 146.992188 13.46875 C 146.992188 13.46875 146.984375 20.167969 146.984375 20.167969 C 146.984375 20.46875 146.734375 20.714844 146.429688 20.714844 C 146.429688 20.714844 139.734375 20.707031 139.734375 20.707031 C 139.429688 20.707031 139.183594 20.460938 139.183594 20.15625 C 139.183594 20.15625 139.191406 13.457031 139.191406 13.457031 C 139.191406 13.15625 139.441406 12.910156 139.746094 12.910156 C 139.746094 12.910156 146.441406 12.917969 146.441406 12.917969 C 146.742188 12.917969 146.992188 13.164062 146.992188 13.46875 Z M 146.992188 13.46875 " fill-opacity="1" fill-rule="nonzero"/><path fill="#ddd2c6" d="M 156.792969 13.480469 C 156.792969 13.480469 156.785156 20.179688 156.785156 20.179688 C 156.785156 20.480469 156.535156 20.730469 156.230469 20.730469 C 156.230469 20.730469 149.535156 20.722656 149.535156 20.722656 C 149.230469 20.722656 148.984375 20.472656 148.984375 20.167969 C 148.984375 20.167969 148.992188 13.472656 148.992188 13.472656 C 148.992188 13.167969 149.238281 12.921875 149.542969 12.921875 C 149.542969 12.921875 156.242188 12.929688 156.242188 12.929688 C 156.542969 12.929688 156.792969 13.175781 156.792969 13.480469 Z M 156.792969 13.480469 " fill-opacity="1" fill-rule="nonzero"/><g clip-path="url(#72f6b7f3d0)"><path fill="#ddd2c6" d="M 205.234375 13.542969 C 205.234375 13.542969 205.226562 20.242188 205.226562 20.242188 C 205.226562 20.542969 204.980469 20.792969 204.675781 20.792969 C 204.675781 20.792969 197.980469 20.78125 197.980469 20.78125 C 197.675781 20.78125 197.425781 20.535156 197.425781 20.230469 C 197.425781 20.230469 197.4375 13.535156 197.4375 13.535156 C 197.4375 13.230469 197.6875 12.984375 197.988281 12.984375 C 197.988281 12.984375 204.683594 12.992188 204.683594 12.992188 C 204.988281 12.992188 205.238281 13.238281 205.234375 13.542969 Z M 205.234375 13.542969 " fill-opacity="1" fill-rule="nonzero"/></g><g clip-path="url(#7be6fce1ea)"><path fill="#ddd2c6" d="M 186.554688 51.246094 C 186.554688 51.246094 186.546875 57.941406 186.546875 57.941406 C 186.546875 58.246094 186.296875 58.496094 185.996094 58.496094 C 185.996094 58.496094 169.980469 58.472656 169.980469 58.472656 C 169.675781 58.472656 169.429688 58.222656 169.429688 57.921875 C 169.429688 57.921875 169.4375 51.222656 169.4375 51.222656 C 169.4375 50.917969 169.6875 50.671875 169.992188 50.671875 C 169.992188 50.671875 186.003906 50.691406 186.003906 50.691406 C 186.308594 50.695312 186.554688 50.941406 186.554688 51.246094 Z M 186.554688 51.246094 " fill-opacity="1" fill-rule="nonzero"/></g><path fill="#ddd2c6" d="M 169.441406 48.488281 C 169.441406 48.488281 169.453125 41.792969 169.453125 41.792969 C 169.453125 41.488281 169.699219 41.242188 170.003906 41.242188 C 170.003906 41.242188 176.699219 41.25 176.699219 41.25 C 177.003906 41.25 177.25 41.5 177.25 41.800781 C 177.25 41.800781 177.242188 48.5 177.242188 48.5 C 177.242188 48.800781 176.992188 49.050781 176.691406 49.050781 C 176.691406 49.050781 169.992188 49.042969 169.992188 49.042969 C 169.6875 49.039062 169.441406 48.792969 169.441406 48.488281 Z M 169.441406 48.488281 " fill-opacity="1" fill-rule="nonzero"/><path fill="#ddd2c6" d="M 186.570312 41.8125 C 186.570312 41.8125 186.558594 48.511719 186.558594 48.511719 C 186.558594 48.816406 186.308594 49.0625 186.003906 49.0625 C 186.003906 49.0625 179.3125 49.054688 179.3125 49.054688 C 179.007812 49.054688 178.757812 48.804688 178.757812 48.5 C 178.757812 48.5 178.765625 41.804688 178.765625 41.804688 C 178.769531 41.5 179.015625 41.253906 179.320312 41.253906 C 179.320312 41.253906 186.015625 41.261719 186.015625 41.261719 C 186.320312 41.261719 186.570312 41.507812 186.570312 41.8125 Z M 186.570312 41.8125 " fill-opacity="1" fill-rule="nonzero"/><path fill="#ddd2c6" d="M 169.453125 39.058594 C 169.453125 39.058594 169.460938 32.359375 169.460938 32.359375 C 169.464844 32.058594 169.710938 31.808594 170.015625 31.808594 C 170.015625 31.808594 176.710938 31.816406 176.710938 31.816406 C 177.015625 31.816406 177.265625 32.066406 177.265625 32.371094 C 177.265625 32.371094 177.253906 39.066406 177.253906 39.066406 C 177.253906 39.371094 177.003906 39.621094 176.699219 39.617188 C 176.699219 39.617188 170.003906 39.609375 170.003906 39.609375 C 169.703125 39.609375 169.453125 39.359375 169.453125 39.058594 Z M 169.453125 39.058594 " fill-opacity="1" fill-rule="nonzero"/><path fill="#ddd2c6" d="M 186.578125 32.382812 C 186.578125 32.382812 186.570312 39.078125 186.570312 39.078125 C 186.570312 39.382812 186.320312 39.628906 186.019531 39.628906 C 186.019531 39.628906 179.320312 39.621094 179.320312 39.621094 C 179.019531 39.621094 178.769531 39.375 178.769531 39.070312 C 178.769531 39.070312 178.777344 32.371094 178.777344 32.371094 C 178.777344 32.066406 179.027344 31.820312 179.332031 31.820312 C 179.332031 31.820312 186.027344 31.832031 186.027344 31.832031 C 186.332031 31.832031 186.582031 32.078125 186.578125 32.382812 Z M 186.578125 32.382812 " fill-opacity="1" fill-rule="nonzero"/><g clip-path="url(#a40b0b6d88)"><path fill="#ddd2c6" d="M 205.214844 32.40625 C 205.214844 32.40625 205.203125 39.101562 205.203125 39.101562 C 205.203125 39.40625 204.953125 39.65625 204.652344 39.65625 C 204.652344 39.65625 197.957031 39.644531 197.957031 39.644531 C 197.652344 39.644531 197.402344 39.394531 197.402344 39.09375 C 197.402344 39.09375 197.414062 32.398438 197.414062 32.398438 C 197.414062 32.09375 197.660156 31.84375 197.964844 31.84375 C 197.964844 31.84375 204.660156 31.851562 204.660156 31.851562 C 204.964844 31.855469 205.214844 32.101562 205.214844 32.40625 Z M 205.214844 32.40625 " fill-opacity="1" fill-rule="nonzero"/></g><path fill="#ddd2c6" d="M 195.894531 32.394531 C 195.894531 32.394531 195.886719 39.09375 195.886719 39.09375 C 195.886719 39.394531 195.640625 39.644531 195.335938 39.644531 C 195.335938 39.644531 188.636719 39.632812 188.636719 39.632812 C 188.332031 39.632812 188.085938 39.382812 188.085938 39.082031 C 188.085938 39.082031 188.097656 32.386719 188.097656 32.386719 C 188.097656 32.082031 188.34375 31.832031 188.648438 31.832031 C 188.648438 31.832031 195.34375 31.84375 195.34375 31.84375 C 195.648438 31.84375 195.894531 32.089844 195.894531 32.394531 Z M 195.894531 32.394531 " fill-opacity="1" fill-rule="nonzero"/><g clip-path="url(#9301eed4cf)"><path fill="#ddd2c6" d="M 205.199219 41.839844 C 205.199219 41.839844 205.179688 57.6875 205.179688 57.6875 C 205.179688 57.992188 204.929688 58.242188 204.628906 58.242188 C 204.628906 58.242188 197.929688 58.234375 197.929688 58.234375 C 197.628906 58.230469 197.378906 57.984375 197.378906 57.679688 C 197.378906 57.679688 197.402344 41.828125 197.402344 41.828125 C 197.402344 41.523438 197.648438 41.277344 197.953125 41.277344 C 197.953125 41.277344 204.648438 41.285156 204.648438 41.285156 C 204.953125 41.285156 205.199219 41.535156 205.199219 41.839844 Z M 205.199219 41.839844 " fill-opacity="1" fill-rule="nonzero"/></g><g clip-path="url(#938bdb8919)"><path fill="#ddd2c6" d="M 195.871094 51.257812 C 195.871094 51.257812 195.863281 57.953125 195.863281 57.953125 C 195.863281 58.257812 195.613281 58.507812 195.308594 58.503906 C 195.308594 58.503906 188.617188 58.496094 188.617188 58.496094 C 188.3125 58.496094 188.0625 58.246094 188.0625 57.945312 C 188.0625 57.945312 188.070312 51.246094 188.070312 51.246094 C 188.070312 50.945312 188.320312 50.695312 188.625 50.695312 C 188.625 50.695312 195.320312 50.703125 195.320312 50.703125 C 195.625 50.703125 195.875 50.953125 195.871094 51.257812 Z M 195.871094 51.257812 " fill-opacity="1" fill-rule="nonzero"/></g><path fill="#ddd2c6" d="M 195.882812 41.824219 C 195.882812 41.824219 195.875 48.523438 195.875 48.523438 C 195.875 48.824219 195.625 49.074219 195.324219 49.074219 C 195.324219 49.074219 188.625 49.066406 188.625 49.066406 C 188.324219 49.066406 188.074219 48.816406 188.074219 48.511719 C 188.074219 48.511719 188.082031 41.816406 188.082031 41.816406 C 188.082031 41.511719 188.332031 41.265625 188.636719 41.265625 C 188.636719 41.265625 195.332031 41.273438 195.332031 41.273438 C 195.636719 41.273438 195.882812 41.523438 195.882812 41.824219 Z M 195.882812 41.824219 " fill-opacity="1" fill-rule="nonzero"/><path fill="#ddd2c6" d="M 146.980469 22.898438 C 146.980469 22.898438 146.972656 29.597656 146.972656 29.597656 C 146.972656 29.902344 146.722656 30.148438 146.417969 30.148438 C 146.417969 30.148438 139.722656 30.140625 139.722656 30.140625 C 139.421875 30.140625 139.171875 29.890625 139.171875 29.585938 C 139.171875 29.585938 139.179688 22.890625 139.179688 22.890625 C 139.179688 22.585938 139.429688 22.339844 139.734375 22.339844 C 139.734375 22.339844 146.429688 22.347656 146.429688 22.347656 C 146.734375 22.347656 146.980469 22.597656 146.980469 22.898438 Z M 146.980469 22.898438 " fill-opacity="1" fill-rule="nonzero"/><path fill="#ddd2c6" d="M 195.910156 22.960938 C 195.910156 22.960938 195.898438 29.660156 195.898438 29.660156 C 195.898438 29.964844 195.648438 30.210938 195.347656 30.210938 C 195.347656 30.210938 188.652344 30.203125 188.652344 30.203125 C 188.347656 30.203125 188.097656 29.953125 188.101562 29.648438 C 188.101562 29.648438 188.109375 22.953125 188.109375 22.953125 C 188.109375 22.648438 188.355469 22.402344 188.660156 22.402344 C 188.660156 22.402344 195.355469 22.410156 195.355469 22.410156 C 195.660156 22.410156 195.910156 22.660156 195.910156 22.960938 Z M 195.910156 22.960938 " fill-opacity="1" fill-rule="nonzero"/><path fill="#ddd2c6" d="M 177.277344 22.9375 C 177.277344 22.9375 177.265625 29.636719 177.265625 29.636719 C 177.265625 29.9375 177.015625 30.1875 176.714844 30.1875 C 176.714844 30.1875 170.019531 30.179688 170.019531 30.179688 C 169.714844 30.179688 169.464844 29.929688 169.464844 29.625 C 169.464844 29.625 169.472656 22.929688 169.472656 22.929688 C 169.472656 22.625 169.722656 22.378906 170.027344 22.378906 C 170.027344 22.378906 176.722656 22.386719 176.722656 22.386719 C 177.027344 22.386719 177.277344 22.636719 177.277344 22.9375 Z M 177.277344 22.9375 " fill-opacity="1" fill-rule="nonzero"/><path fill="#ddd2c6" d="M 156.78125 22.914062 C 156.78125 22.914062 156.769531 29.609375 156.769531 29.609375 C 156.769531 29.914062 156.523438 30.160156 156.21875 30.160156 C 156.21875 30.160156 149.519531 30.152344 149.519531 30.152344 C 149.21875 30.152344 148.972656 29.902344 148.972656 29.597656 C 148.972656 29.597656 148.980469 22.902344 148.980469 22.902344 C 148.980469 22.601562 149.230469 22.351562 149.53125 22.351562 C 149.53125 22.351562 156.230469 22.359375 156.230469 22.359375 C 156.53125 22.359375 156.78125 22.609375 156.78125 22.914062 Z M 156.78125 22.914062 " fill-opacity="1" fill-rule="nonzero"/><path fill="#ddd2c6" d="M 186.589844 22.953125 C 186.589844 22.953125 186.582031 29.648438 186.582031 29.648438 C 186.582031 29.949219 186.335938 30.199219 186.03125 30.199219 C 186.03125 30.199219 179.332031 30.191406 179.332031 30.191406 C 179.03125 30.191406 178.78125 29.941406 178.78125 29.636719 C 178.78125 29.636719 178.792969 22.941406 178.792969 22.941406 C 178.792969 22.636719 179.039062 22.390625 179.34375 22.390625 C 179.34375 22.390625 186.039062 22.398438 186.039062 22.398438 C 186.34375 22.398438 186.589844 22.648438 186.589844 22.953125 Z M 186.589844 22.953125 " fill-opacity="1" fill-rule="nonzero"/><g clip-path="url(#d7e3e8660e)"><path fill="#ddd2c6" d="M 205.226562 22.972656 C 205.226562 22.972656 205.21875 29.671875 205.21875 29.671875 C 205.214844 29.976562 204.96875 30.222656 204.664062 30.222656 C 204.664062 30.222656 197.96875 30.214844 197.96875 30.214844 C 197.664062 30.214844 197.414062 29.964844 197.414062 29.660156 C 197.414062 29.660156 197.421875 22.964844 197.421875 22.964844 C 197.425781 22.660156 197.671875 22.414062 197.976562 22.414062 C 197.976562 22.414062 204.671875 22.421875 204.671875 22.421875 C 204.976562 22.421875 205.226562 22.671875 205.226562 22.972656 Z M 205.226562 22.972656 " fill-opacity="1" fill-rule="nonzero"/></g><path fill="#ddd2c6" d="M 166.578125 22.925781 C 166.578125 22.925781 166.570312 29.621094 166.570312 29.621094 C 166.570312 29.925781 166.320312 30.175781 166.019531 30.171875 C 166.019531 30.171875 159.324219 30.164062 159.324219 30.164062 C 159.019531 30.164062 158.769531 29.914062 158.769531 29.613281 C 158.769531 29.613281 158.777344 22.917969 158.777344 22.917969 C 158.777344 22.613281 159.027344 22.363281 159.332031 22.363281 C 159.332031 22.363281 166.027344 22.371094 166.027344 22.371094 C 166.332031 22.371094 166.582031 22.621094 166.578125 22.925781 Z M 166.578125 22.925781 " fill-opacity="1" fill-rule="nonzero"/><g clip-path="url(#7e715af15a)"><path fill="#ddd2c6" d="M 156.746094 50.933594 C 156.746094 50.933594 156.734375 57.628906 156.734375 57.628906 C 156.734375 57.929688 156.488281 58.179688 156.183594 58.179688 C 156.183594 58.179688 149.484375 58.171875 149.484375 58.171875 C 149.183594 58.171875 148.9375 57.921875 148.9375 57.617188 C 148.9375 57.617188 148.945312 50.921875 148.945312 50.921875 C 148.945312 50.617188 149.191406 50.371094 149.496094 50.371094 C 149.496094 50.371094 156.195312 50.378906 156.195312 50.378906 C 156.496094 50.378906 156.746094 50.628906 156.746094 50.933594 Z M 156.746094 50.933594 " fill-opacity="1" fill-rule="nonzero"/></g><g clip-path="url(#7f34cd8356)"><path fill="#ddd2c6" d="M 166.542969 50.945312 C 166.542969 50.945312 166.535156 57.640625 166.535156 57.640625 C 166.535156 57.945312 166.285156 58.191406 165.984375 58.191406 C 165.984375 58.191406 159.285156 58.183594 159.285156 58.183594 C 158.980469 58.183594 158.734375 57.933594 158.734375 57.632812 C 158.734375 57.632812 158.742188 50.933594 158.742188 50.933594 C 158.742188 50.628906 158.992188 50.382812 159.296875 50.382812 C 159.296875 50.382812 165.992188 50.390625 165.992188 50.390625 C 166.296875 50.390625 166.542969 50.640625 166.542969 50.945312 Z M 166.542969 50.945312 " fill-opacity="1" fill-rule="nonzero"/></g><path fill="#ddd2c6" d="M 156.757812 41.5 C 156.757812 41.5 156.75 48.195312 156.75 48.195312 C 156.75 48.5 156.496094 48.75 156.195312 48.75 C 156.195312 48.75 149.5 48.742188 149.5 48.742188 C 149.195312 48.738281 148.945312 48.488281 148.949219 48.1875 C 148.949219 48.1875 148.957031 41.492188 148.957031 41.492188 C 148.957031 41.1875 149.203125 40.9375 149.507812 40.9375 C 149.507812 40.9375 156.203125 40.945312 156.203125 40.945312 C 156.507812 40.949219 156.757812 41.195312 156.757812 41.5 Z M 156.757812 41.5 " fill-opacity="1" fill-rule="nonzero"/><g clip-path="url(#5dabacb4ef)"><path fill="#ddd2c6" d="M 146.945312 50.917969 C 146.945312 50.917969 146.9375 57.613281 146.9375 57.613281 C 146.9375 57.917969 146.6875 58.167969 146.382812 58.167969 C 146.382812 58.167969 139.6875 58.160156 139.6875 58.160156 C 139.382812 58.160156 139.132812 57.910156 139.136719 57.605469 C 139.136719 57.605469 139.144531 50.910156 139.144531 50.910156 C 139.144531 50.605469 139.394531 50.355469 139.695312 50.359375 C 139.695312 50.359375 146.394531 50.367188 146.394531 50.367188 C 146.695312 50.367188 146.945312 50.617188 146.945312 50.917969 Z M 146.945312 50.917969 " fill-opacity="1" fill-rule="nonzero"/></g><path fill="#ddd2c6" d="M 189.03125 3.894531 C 189.027344 5.226562 187.945312 6.304688 186.613281 6.304688 C 185.277344 6.304688 184.199219 5.21875 184.199219 3.886719 C 184.203125 2.550781 185.285156 1.472656 186.617188 1.472656 C 187.953125 1.476562 189.035156 2.558594 189.03125 3.894531 Z M 189.03125 3.894531 " fill-opacity="1" fill-rule="nonzero"/><path fill="#ddd2c6" d="M 180.125 3.882812 C 180.125 5.214844 179.042969 6.296875 177.707031 6.292969 C 176.375 6.292969 175.292969 5.210938 175.296875 3.875 C 175.296875 2.542969 176.378906 1.460938 177.714844 1.464844 C 179.046875 1.464844 180.128906 2.546875 180.125 3.882812 Z M 180.125 3.882812 " fill-opacity="1" fill-rule="nonzero"/><path fill="#ddd2c6" d="M 197.9375 3.902344 C 197.933594 5.238281 196.851562 6.320312 195.515625 6.316406 C 194.183594 6.316406 193.105469 5.230469 193.105469 3.898438 C 193.109375 2.566406 194.191406 1.484375 195.523438 1.488281 C 196.859375 1.488281 197.9375 2.570312 197.9375 3.902344 Z M 197.9375 3.902344 " fill-opacity="1" fill-rule="nonzero"/></g></g></g><g clip-path="url(#374ecaaf94)"><path fill="#8e4739" d="M 58.671875 326.796875 C 58.671875 326.796875 99.902344 240.464844 101.328125 234.34375 C 102.757812 228.21875 97.453125 209.851562 98.675781 200.464844 C 99.902344 191.074219 100.921875 181.480469 101.738281 178.214844 C 102.554688 174.953125 103.984375 166.175781 106.433594 162.910156 C 108.878906 159.644531 111.738281 162.5 111.125 165.765625 C 110.511719 169.03125 109.492188 176.789062 109.085938 179.238281 C 108.675781 181.6875 109.085938 189.238281 109.085938 189.238281 C 109.085938 189.238281 110.71875 179.238281 111.328125 175.972656 C 111.941406 172.707031 114.316406 163.171875 115.410156 160.257812 C 117.25 155.359375 122.554688 155.765625 122.148438 159.441406 C 121.738281 163.113281 119.289062 173.929688 118.882812 176.789062 C 118.472656 179.644531 119.085938 187.402344 119.085938 187.402344 C 119.085938 187.402344 123.90625 164.765625 124.390625 160.867188 C 125.003906 155.96875 128.066406 149.847656 130.921875 150.460938 C 134.019531 151.125 133.371094 157.601562 132.351562 161.074219 C 131.457031 164.113281 130.71875 172.910156 130.105469 175.972656 C 129.496094 179.03125 129.699219 186.175781 129.699219 186.175781 C 129.699219 186.175781 131.738281 171.277344 133.371094 166.175781 C 135.003906 161.074219 136.230469 154.132812 138.472656 150.867188 C 140.71875 147.601562 146.027344 149.847656 144.597656 154.335938 C 143.167969 158.828125 140.71875 170.871094 140.105469 173.929688 C 139.496094 176.992188 137.863281 195.359375 139.699219 198.21875 C 141.535156 201.074219 146.433594 193.933594 148.882812 190.054688 C 151.332031 186.175781 155.824219 184.746094 158.476562 185.15625 C 161.128906 185.5625 157.25 192.503906 156.027344 195.972656 C 154.800781 199.441406 150.515625 215.15625 146.027344 219.851562 C 141.535156 224.546875 129.289062 235.566406 126.839844 240.667969 C 124.390625 245.773438 94.59375 329.449219 94.59375 329.449219 C 94.59375 329.449219 58.671875 326.796875 58.671875 326.796875 Z M 58.671875 326.796875 " fill-opacity="1" fill-rule="nonzero"/></g><g clip-path="url(#ad1a50f725)"><path fill="#8e4739" d="M 94.59375 329.449219 C 94.59375 329.449219 124.390625 245.773438 126.839844 240.667969 C 129.289062 235.566406 141.535156 224.546875 146.023438 219.851562 C 150.515625 215.15625 154.800781 199.445312 156.027344 195.972656 C 157.25 192.503906 161.15625 185.289062 158.476562 185.15625 C 156.585938 185.058594 155.761719 185.242188 153.246094 186.167969 C 152.460938 188.417969 150.121094 194.253906 149.496094 196.027344 C 148.273438 199.496094 143.222656 213.15625 138.730469 217.847656 C 134.242188 222.542969 121.996094 233.5625 119.546875 238.664062 C 117.097656 243.769531 74.800781 327.988281 74.800781 327.988281 " fill-opacity="0.15" fill-rule="nonzero"/></g><g clip-path="url(#d46435d709)"><path fill="#8e4739" d="M 277.464844 315.300781 C 277.464844 315.300781 236.238281 228.96875 234.808594 222.847656 C 233.378906 216.722656 238.6875 198.355469 237.460938 188.964844 C 236.238281 179.578125 235.21875 169.984375 234.402344 166.71875 C 233.585938 163.453125 232.15625 154.679688 229.707031 151.414062 C 227.257812 148.148438 224.398438 151.003906 225.011719 154.269531 C 225.625 157.535156 226.644531 165.292969 227.054688 167.742188 C 227.460938 170.191406 227.054688 177.742188 227.054688 177.742188 C 227.054688 177.742188 225.421875 167.742188 224.808594 164.476562 C 224.195312 161.210938 221.820312 151.675781 220.726562 148.761719 C 218.890625 143.863281 213.582031 144.269531 213.992188 147.945312 C 214.398438 151.617188 216.847656 162.433594 217.257812 165.292969 C 217.664062 168.148438 217.054688 175.90625 217.054688 175.90625 C 217.054688 175.90625 212.234375 153.269531 211.746094 149.371094 C 211.132812 144.472656 208.074219 138.351562 205.214844 138.964844 C 202.117188 139.628906 202.765625 146.105469 203.785156 149.578125 C 204.679688 152.617188 205.417969 161.414062 206.03125 164.476562 C 206.644531 167.535156 206.441406 174.679688 206.441406 174.679688 C 206.441406 174.679688 204.398438 159.78125 202.765625 154.679688 C 201.132812 149.578125 199.910156 142.636719 197.664062 139.371094 C 195.417969 136.105469 190.113281 138.351562 191.539062 142.839844 C 192.96875 147.332031 195.417969 159.371094 196.03125 162.433594 C 196.644531 165.496094 198.277344 183.863281 196.4375 186.722656 C 194.601562 189.578125 189.703125 182.433594 187.253906 178.558594 C 184.804688 174.679688 180.316406 173.25 177.664062 173.660156 C 175.007812 174.066406 178.886719 181.007812 180.113281 184.476562 C 181.335938 187.945312 185.621094 203.660156 190.113281 208.355469 C 194.601562 213.050781 206.847656 224.070312 209.296875 229.171875 C 211.746094 234.273438 241.542969 317.953125 241.542969 317.953125 C 241.542969 317.953125 277.464844 315.300781 277.464844 315.300781 Z M 277.464844 315.300781 " fill-opacity="1" fill-rule="nonzero"/></g><g clip-path="url(#fba0aad52c)"><path fill="#8e4739" d="M 241.542969 317.953125 C 241.542969 317.953125 211.746094 234.277344 209.296875 229.171875 C 206.847656 224.070312 194.601562 213.046875 190.113281 208.355469 C 185.621094 203.660156 181.335938 187.945312 180.109375 184.476562 C 178.886719 181.007812 174.980469 173.792969 177.664062 173.660156 C 179.554688 173.5625 180.375 173.746094 182.890625 174.671875 C 183.675781 176.921875 186.015625 182.757812 186.640625 184.53125 C 187.867188 188 192.917969 201.65625 197.410156 206.351562 C 201.898438 211.046875 214.144531 222.066406 216.59375 227.167969 C 219.042969 232.273438 261.335938 316.492188 261.335938 316.492188 " fill-opacity="0.15" fill-rule="nonzero"/></g></svg>